<?xml version="1.0" encoding="UTF-8" standalone="no"?>
<!-- Created with Inkscape (http://www.inkscape.org/) -->

<svg
   width="68.587563mm"
   height="15.874396mm"
   viewBox="0 0 68.587563 15.874396"
   version="1.1"
   id="svg1"
   xml:space="preserve"
   xmlns:inkscape="http://www.inkscape.org/namespaces/inkscape"
   xmlns:sodipodi="http://sodipodi.sourceforge.net/DTD/sodipodi-0.dtd"
   xmlns="http://www.w3.org/2000/svg"
   xmlns:svg="http://www.w3.org/2000/svg"><sodipodi:namedview
     id="namedview1"
     pagecolor="#ffffff"
     bordercolor="#000000"
     borderopacity="0.25"
     inkscape:showpageshadow="2"
     inkscape:pageopacity="0.0"
     inkscape:pagecheckerboard="0"
     inkscape:deskcolor="#d1d1d1"
     inkscape:document-units="mm"
     showgrid="false"><inkscape:page
       x="0"
       y="0"
       width="68.587563"
       height="15.874396"
       id="page2"
       margin="0"
       bleed="0" /></sodipodi:namedview><defs
     id="defs1" /><g
     inkscape:label="Layer 1"
     inkscape:groupmode="layer"
     id="layer1"
     transform="translate(88.004197,-56.356552)"><g
       id="g110"
       transform="translate(-108.11745,26.19824)"
       style="display:inline"><path
         style="fill:#00b4fc"
         d="m 26.243659,45.994151 c -1.125809,-0.263184 -2.189889,-0.778705 -3.085254,-1.494732 -0.137843,-0.110233 -0.250623,-0.223846 -0.250623,-0.252473 0,-0.04534 1.124257,-1.193913 2.198881,-2.246447 l 0.352427,-0.345183 0.08117,0.05677 c 0.750586,0.525002 1.349534,0.76632 2.112665,0.851199 l 0.352041,0.03916 0.316455,-0.02128 c 2.125421,-0.142937 3.740636,-1.739053 3.991637,-3.944438 l 0.04086,-0.35901 -0.02067,-0.398753 C 32.295468,37.150176 32.11737,36.493559 31.784655,35.85643 l -0.176347,-0.337692 0.307867,-0.308484 c 0.169327,-0.169666 0.749019,-0.750683 1.288205,-1.291148 0.539186,-0.540466 0.992304,-0.982665 1.00693,-0.982665 0.09336,0 0.674347,0.863361 0.968139,1.438672 0.496589,0.972433 0.766787,1.913068 0.869268,3.026172 l 0.03806,0.413411 -0.0204,0.578776 -0.0204,0.578776 -0.07162,0.458686 c -0.495005,3.1701 -2.845929,5.783175 -5.864984,6.518984 l -0.339709,0.08279 -1.693865,-0.0031 -1.693865,-0.0031 z m 10.569269,-5.359993 0.0087,-5.366081 h 1.03706 1.037061 l 0.0096,0.487826 c 0.0053,0.268304 0.01746,0.487826 0.02711,0.487826 0.0096,0 0.1135,-0.09814 0.23078,-0.218087 0.259027,-0.26492 0.55087,-0.468368 0.898319,-0.626231 l 0.260852,-0.118518 0.341032,-0.06741 0.341031,-0.06741 0.501246,0.01678 0.501245,0.01678 0.273766,0.07124 c 1.510669,0.393106 2.436184,1.671975 2.577312,3.561311 l 0.03288,0.440202 -0.03472,0.471779 c -0.164035,2.229168 -1.378461,3.663006 -3.20267,3.781301 l -0.337946,0.02191 -0.327052,-0.0384 -0.327052,-0.0384 -0.320046,-0.101533 c -0.400232,-0.126973 -0.7562,-0.325084 -1.053418,-0.586272 -0.126498,-0.111163 -0.239278,-0.202115 -0.250623,-0.202115 -0.01134,0 -0.02063,0.773906 -0.02063,1.719791 v 1.719792 h -1.106302 -1.106302 z m 4.554527,0.933161 c 0.433435,-0.120074 0.765982,-0.394609 1.000584,-0.826033 l 0.139145,-0.255881 0.07183,-0.277023 0.07183,-0.277023 0.01981,-0.433154 0.01981,-0.433153 -0.05895,-0.337266 C 42.563024,38.3359 42.48687,38.108556 42.328291,37.822553 l -0.11391,-0.205439 -0.191024,-0.182331 C 41.802558,37.224027 41.568078,37.093862 41.279825,37.02203 L 41.07638,36.97133 H 40.814987 40.553595 L 40.3254,37.03187 c -0.297717,0.07898 -0.523031,0.20763 -0.746837,0.426422 l -0.181448,0.177383 -0.152521,0.304482 c -0.181241,0.361817 -0.254183,0.629914 -0.2963,1.089034 l -0.03118,0.339927 0.03257,0.332117 c 0.14234,1.451421 1.138693,2.220425 2.417772,1.866083 z m 45.562352,2.296307 c -0.230651,-0.0593 -0.448585,-0.178265 -0.646822,-0.353087 l -0.1491,-0.131489 -0.103696,-0.202491 c -0.05703,-0.111371 -0.120497,-0.290418 -0.141033,-0.397882 l -0.03734,-0.195391 0.0232,-0.191196 0.02319,-0.191196 0.09829,-0.198846 c 0.174398,-0.352809 0.501351,-0.626623 0.892837,-0.747725 l 0.185064,-0.05725 0.316182,0.01346 0.316181,0.01346 0.190128,0.09768 c 0.10457,0.05372 0.277044,0.179707 0.383276,0.279962 l 0.193148,0.182283 0.07777,0.198193 c 0.04277,0.109007 0.09396,0.285554 0.113751,0.392328 l 0.03598,0.194134 -0.0366,0.211299 c -0.06904,0.398625 -0.281849,0.721153 -0.624753,0.946869 l -0.15521,0.102167 -0.192453,0.04335 c -0.247673,0.05578 -0.52359,0.05265 -0.761999,-0.0086 z m -6.966426,-0.08511 c -0.602485,-0.05809 -1.406024,-0.262143 -1.83214,-0.465262 -0.91131,-0.4344 -1.556415,-1.244456 -1.633488,-2.051166 l -0.01821,-0.190621 1.150447,0.0087 1.150448,0.0087 0.04132,0.132291 c 0.152599,0.488555 0.530261,0.778807 1.210762,0.930529 l 0.27655,0.06166 0.51853,-0.0028 0.51853,-0.0028 0.233647,-0.05465 c 0.689874,-0.16136 1.007107,-0.575813 0.790289,-1.032484 -0.17202,-0.362313 -0.574769,-0.513982 -2.181987,-0.821702 -2.464809,-0.471914 -3.37625,-1.109064 -3.508652,-2.452751 l -0.02297,-0.233112 0.03759,-0.258597 c 0.186399,-1.282168 1.3142,-2.044655 3.200711,-2.163945 l 0.449909,-0.02845 0.483445,0.02548 c 1.529845,0.08063 2.539381,0.525718 3.130121,1.380022 0.264705,0.382807 0.508962,1.095105 0.437027,1.274453 l -0.0222,0.05536 h -1.085766 -1.085765 l -0.03217,-0.04134 c -0.01769,-0.02274 -0.05864,-0.124968 -0.091,-0.22718 -0.110634,-0.34951 -0.396949,-0.60936 -0.841182,-0.763429 l -0.202171,-0.07012 -0.537251,-0.01498 -0.537251,-0.01498 -0.188691,0.03752 c -0.268402,0.05337 -0.519694,0.173331 -0.666952,0.318396 l -0.126956,0.125066 -0.03743,0.133005 -0.03743,0.133005 0.0228,0.145486 0.0228,0.145487 0.124917,0.132286 c 0.23935,0.253469 0.526496,0.347916 1.945506,0.639914 2.031535,0.418041 2.601833,0.638557 3.179574,1.229441 l 0.215843,0.220753 0.133864,0.267022 c 0.07362,0.146862 0.158687,0.378643 0.189027,0.515069 l 0.05516,0.248047 -0.01747,0.330729 -0.01747,0.330729 -0.100942,0.270056 c -0.249945,0.668699 -0.655288,1.081332 -1.382507,1.407373 l -0.292594,0.131181 -0.385603,0.09298 c -0.212082,0.05114 -0.57759,0.116733 -0.812241,0.14576 l -0.426638,0.05278 -0.541285,-0.0045 c -0.297707,-0.0025 -0.681288,-0.01795 -0.852403,-0.03445 z m -9.719274,-0.140273 c -0.344216,-0.0626 -0.57164,-0.137704 -0.893309,-0.295005 L 69.074248,43.208001 68.779146,42.925667 68.484043,42.643334 68.337318,42.37172 C 68.152523,42.029636 68.10155,41.893538 68.0117,41.502322 L 67.93954,41.18813 67.92578,38.31272 c -0.0076,-1.581475 -0.0047,-2.909978 0.0064,-2.952228 l 0.02015,-0.07682 1.079489,0.0087 1.079489,0.0087 0.01949,2.728516 0.01949,2.728516 0.05511,0.173436 c 0.132823,0.41804 0.319483,0.63797 0.672804,0.792727 l 0.187522,0.08214 0.26602,0.01697 0.266019,0.01697 0.203755,-0.03652 c 0.288733,-0.05175 0.544028,-0.172858 0.746669,-0.354204 l 0.174835,-0.156462 0.09918,-0.201385 c 0.05455,-0.110761 0.127758,-0.313006 0.162688,-0.449432 l 0.06351,-0.248046 0.01791,-2.546615 0.01791,-2.546615 h 1.088913 1.088913 v 4.101042 4.101042 h -0.985207 -0.985207 l -0.0096,-0.471289 c -0.0053,-0.259209 -0.022,-0.471289 -0.03717,-0.471289 -0.01517,0 -0.108951,0.09595 -0.2084,0.213217 -0.325661,0.384016 -0.810685,0.672554 -1.369561,0.814742 l -0.27655,0.07036 -0.449392,0.01214 -0.449393,0.01214 z M 54.38626,43.467456 c -0.02815,-0.07019 -0.02023,-7.527701 0.0084,-7.885186 l 0.0225,-0.28112 h 1.03706 1.03706 l -0.01035,0.487826 -0.01035,0.487825 0.02763,-3.2e-4 c 0.0152,-1.77e-4 0.125412,-0.10385 0.244919,-0.230386 l 0.217286,-0.230065 0.265824,-0.16696 c 0.32551,-0.204447 0.688213,-0.341634 1.098026,-0.415309 l 0.310267,-0.05578 0.501246,0.01665 0.501246,0.01665 0.2587,0.072 c 0.575824,0.160264 0.970556,0.436944 1.410787,0.988867 l 0.06223,0.07802 0.146721,-0.185922 c 0.308969,-0.39152 0.864958,-0.733232 1.440153,-0.885122 l 0.276549,-0.07303 0.639521,-8.41e-4 0.63952,-8.42e-4 0.274544,0.07345 c 0.378889,0.101362 0.735189,0.277067 1.009996,0.498066 l 0.232143,0.186689 0.164882,0.23151 c 0.196974,0.276568 0.346773,0.625543 0.433001,1.008724 l 0.06326,0.28112 v 3.009635 3.009636 h -1.088914 -1.088913 l -0.01728,-2.761589 -0.01729,-2.761588 -0.08009,-0.212232 c -0.140813,-0.373129 -0.330311,-0.573238 -0.680419,-0.718519 l -0.138274,-0.05738 -0.362971,-4.67e-4 -0.362971,-4.67e-4 -0.190128,0.07222 -0.190128,0.07222 -0.176168,0.147573 -0.176167,0.147573 -0.125525,0.228538 c -0.06904,0.125696 -0.152177,0.323742 -0.184751,0.440102 l -0.05923,0.211564 -0.01934,2.596224 -0.01934,2.596224 h -1.088913 -1.088913 l -0.01903,-2.711979 -0.01903,-2.71198 -0.04048,-0.135614 C 59.22752,37.182381 58.588574,36.83452 57.760561,37.02129 57.13718,37.161902 56.821187,37.505236 56.66255,38.214306 l -0.05858,0.261844 0.0062,2.464231 c 0.0034,1.355327 -0.0041,2.490142 -0.01685,2.52181 l -0.02309,0.05758 h -1.081516 -1.081517 z m -6.329766,-0.03389 c -0.13309,-0.02626 -0.353935,-0.101094 -0.490767,-0.166308 L 47.316941,43.148689 47.165856,43.006183 C 46.975709,42.826834 46.814733,42.539944 46.71756,42.207237 l -0.07548,-0.25843 -0.01204,-2.554883 c -0.0066,-1.405186 -0.01505,-2.557731 -0.01874,-2.561212 -0.0037,-0.0035 -0.286704,-0.01464 -0.628934,-0.0248 l -0.622236,-0.01848 -0.0093,-0.723425 -0.0093,-0.723424 0.03882,-0.04475 0.03882,-0.04475 0.592741,-0.009 0.592742,-0.009 0.01728,-0.777214 0.01729,-0.777214 0.328402,-0.154158 c 0.914016,-0.429056 1.593416,-0.724252 1.624535,-0.705852 l 0.03476,0.02056 v 1.205209 1.20521 h 0.690157 0.690157 l 0.03579,0.06397 0.03578,0.06397 -5.29e-4,0.671901 c -2.91e-4,0.369545 -0.01267,0.69018 -0.0275,0.71252 l -0.02697,0.04062 -0.689799,0.009 -0.6898,0.009 v 2.265494 2.265495 l 0.08112,0.124825 c 0.09885,0.152118 0.232909,0.22248 0.467229,0.245234 l 0.177596,0.01725 0.310919,-0.05163 0.310918,-0.05163 0.02817,0.02695 c 0.01549,0.01482 0.04477,0.371285 0.06506,0.792135 l 0.03689,0.765183 -0.03852,0.04441 c -0.04973,0.05733 -0.223964,0.106087 -0.605613,0.169482 l -0.307004,0.051 -0.436222,-0.0027 -0.436223,-0.0027 z m 3.149629,0.0013 c -0.02828,-0.0705 -0.02053,-7.526712 0.0082,-7.885639 l 0.0225,-0.28112 h 1.106197 1.106198 v 4.101042 4.101042 l -1.11096,0.0087 -1.110959,0.0087 z M 21.510107,42.747505 c -1.227075,-1.819818 -1.673263,-4.114204 -1.228697,-6.31821 0.607506,-3.011816 2.932449,-5.44956 5.873218,-6.158173 l 0.468168,-0.11281 h 1.461634 1.461634 l 0.45774,0.113221 c 0.835091,0.206558 1.632652,0.542969 2.322397,0.979587 0.455097,0.288082 0.710203,0.484326 0.710203,0.546332 0,0.04925 -2.43246,2.512924 -2.508731,2.540926 -0.02147,0.0079 -0.168165,-0.06011 -0.325978,-0.151104 -0.319407,-0.184163 -0.624681,-0.30872 -1.088836,-0.444262 l -0.311118,-0.09085 -0.691373,-5.34e-4 -0.691374,-5.33e-4 -0.340059,0.08798 c -0.408044,0.105572 -0.96371,0.353433 -1.318706,0.588223 l -0.259235,0.171455 -0.323571,0.322528 c -1.358364,1.353987 -1.72847,3.47723 -0.919015,5.272254 0.07462,0.165464 0.135701,0.317583 0.135745,0.338041 1.29e-4,0.05849 -2.559302,2.574324 -2.630857,2.586042 l -0.06399,0.01048 z m 30.518572,-8.355014 c -0.238508,-0.04837 -0.472352,-0.172201 -0.656918,-0.34786 l -0.17617,-0.167666 -0.07445,-0.190385 -0.07445,-0.190385 v -0.193399 -0.193399 l 0.05894,-0.174601 0.05894,-0.174601 0.181934,-0.188007 0.181933,-0.188007 0.217161,-0.0953 0.217162,-0.0953 0.329129,-6.39e-4 0.329129,-6.4e-4 0.230359,0.108498 0.230358,0.108499 0.155954,0.165953 0.155955,0.165953 0.0744,0.188569 0.07441,0.18857 -0.01533,0.237224 -0.01533,0.237224 -0.09353,0.182888 -0.09353,0.182889 -0.172774,0.148617 -0.172774,0.148618 -0.186698,0.06683 c -0.219858,0.0787 -0.564711,0.110243 -0.763809,0.06986 z"
         id="path114" /><g
         id="g116"><path
           style="fill:#ffffff"
           d="m 26.243659,45.994151 c -1.125809,-0.263184 -2.189889,-0.778705 -3.085254,-1.494732 -0.137843,-0.110233 -0.250623,-0.223846 -0.250623,-0.252473 0,-0.04534 1.124257,-1.193913 2.198881,-2.246447 l 0.352427,-0.345183 0.08117,0.05677 c 0.750586,0.525002 1.349534,0.76632 2.112665,0.851199 l 0.352041,0.03916 0.316455,-0.02128 c 2.125421,-0.142937 3.740636,-1.739053 3.991637,-3.944438 l 0.04086,-0.35901 -0.02067,-0.398753 C 32.295468,37.150176 32.11737,36.493559 31.784655,35.85643 l -0.176347,-0.337692 0.307867,-0.308484 c 0.169327,-0.169666 0.749019,-0.750683 1.288205,-1.291148 0.539186,-0.540466 0.992304,-0.982665 1.00693,-0.982665 0.09336,0 0.674347,0.863361 0.968139,1.438672 0.496589,0.972433 0.766787,1.913068 0.869268,3.026172 l 0.03806,0.413411 -0.0204,0.578776 -0.0204,0.578776 -0.07162,0.458686 c -0.495005,3.1701 -2.845929,5.783175 -5.864984,6.518984 l -0.339709,0.08279 -1.693865,-0.0031 -1.693865,-0.0031 z m 10.569269,-5.359993 0.0087,-5.366081 h 1.03706 1.037061 l 0.0096,0.487826 c 0.0053,0.268304 0.01746,0.487826 0.02711,0.487826 0.0096,0 0.1135,-0.09814 0.23078,-0.218087 0.259027,-0.26492 0.55087,-0.468368 0.898319,-0.626231 l 0.260852,-0.118518 0.341032,-0.06741 0.341031,-0.06741 0.501246,0.01678 0.501245,0.01678 0.273766,0.07124 c 1.510669,0.393106 2.436184,1.671975 2.577312,3.561311 l 0.03288,0.440202 -0.03472,0.471779 c -0.164035,2.229168 -1.378461,3.663006 -3.20267,3.781301 l -0.337946,0.02191 -0.327052,-0.0384 -0.327052,-0.0384 -0.320046,-0.101533 c -0.400232,-0.126973 -0.7562,-0.325084 -1.053418,-0.586272 -0.126498,-0.111163 -0.239278,-0.202115 -0.250623,-0.202115 -0.01134,0 -0.02063,0.773906 -0.02063,1.719791 v 1.719792 h -1.106302 -1.106302 z m 4.554527,0.933161 c 0.433435,-0.120074 0.765982,-0.394609 1.000584,-0.826033 l 0.139145,-0.255881 0.07183,-0.277023 0.07183,-0.277023 0.01981,-0.433154 0.01981,-0.433153 -0.05895,-0.337266 C 42.563024,38.3359 42.48687,38.108556 42.328291,37.822553 l -0.11391,-0.205439 -0.191024,-0.182331 C 41.802558,37.224027 41.568078,37.093862 41.279825,37.02203 L 41.07638,36.97133 H 40.814987 40.553595 L 40.3254,37.03187 c -0.297717,0.07898 -0.523031,0.20763 -0.746837,0.426422 l -0.181448,0.177383 -0.152521,0.304482 c -0.181241,0.361817 -0.254183,0.629914 -0.2963,1.089034 l -0.03118,0.339927 0.03257,0.332117 c 0.14234,1.451421 1.138693,2.220425 2.417772,1.866083 z m 38.595926,2.211201 c -0.602485,-0.05809 -1.406024,-0.262143 -1.83214,-0.465262 -0.91131,-0.4344 -1.556415,-1.244456 -1.633488,-2.051166 l -0.01821,-0.190621 1.150447,0.0087 1.150448,0.0087 0.04132,0.132291 c 0.152599,0.488555 0.530261,0.778807 1.210762,0.930529 l 0.27655,0.06166 0.51853,-0.0028 0.51853,-0.0028 0.233647,-0.05465 c 0.689874,-0.16136 1.007107,-0.575813 0.790289,-1.032484 -0.17202,-0.362313 -0.574769,-0.513982 -2.181987,-0.821702 -2.464809,-0.471914 -3.37625,-1.109064 -3.508652,-2.452751 l -0.02297,-0.233112 0.03759,-0.258597 c 0.186399,-1.282168 1.3142,-2.044655 3.200711,-2.163945 l 0.449909,-0.02845 0.483445,0.02548 c 1.529845,0.08063 2.539381,0.525718 3.130121,1.380022 0.264705,0.382807 0.508962,1.095105 0.437027,1.274453 l -0.0222,0.05536 h -1.085766 -1.085765 l -0.03217,-0.04134 c -0.01769,-0.02274 -0.05864,-0.124968 -0.091,-0.22718 -0.110634,-0.34951 -0.396949,-0.60936 -0.841182,-0.763429 l -0.202171,-0.07012 -0.537251,-0.01498 -0.537251,-0.01498 -0.188691,0.03752 c -0.268402,0.05337 -0.519694,0.173331 -0.666952,0.318396 l -0.126956,0.125066 -0.03743,0.133005 -0.03743,0.133005 0.0228,0.145486 0.0228,0.145487 0.124917,0.132286 c 0.23935,0.253469 0.526496,0.347916 1.945506,0.639914 2.031535,0.418041 2.601833,0.638557 3.179574,1.229441 l 0.215843,0.220753 0.133864,0.267022 c 0.07362,0.146862 0.158687,0.378643 0.189027,0.515069 l 0.05516,0.248047 -0.01747,0.330729 -0.01747,0.330729 -0.100942,0.270056 c -0.249945,0.668699 -0.655288,1.081332 -1.382507,1.407373 l -0.292594,0.131181 -0.385603,0.09298 c -0.212082,0.05114 -0.57759,0.116733 -0.812241,0.14576 l -0.426638,0.05278 -0.541285,-0.0045 c -0.297707,-0.0025 -0.681288,-0.01795 -0.852403,-0.03445 z m -9.719274,-0.140273 c -0.344216,-0.0626 -0.57164,-0.137704 -0.893309,-0.295005 l -0.27655,-0.135237 -0.295102,-0.282334 -0.295103,-0.282333 -0.146725,-0.271614 C 68.152523,42.029636 68.10155,41.893538 68.0117,41.502322 L 67.93954,41.18813 67.92578,38.31272 c -0.0076,-1.581475 -0.0047,-2.909978 0.0064,-2.952228 l 0.02015,-0.07682 1.079489,0.0087 1.079489,0.0087 0.01949,2.728516 0.01949,2.728516 0.05511,0.173436 c 0.132823,0.41804 0.319483,0.63797 0.672804,0.792727 l 0.187522,0.08214 0.26602,0.01697 0.266019,0.01697 0.203755,-0.03652 c 0.288733,-0.05175 0.544028,-0.172858 0.746669,-0.354204 l 0.174835,-0.156462 0.09918,-0.201385 c 0.05455,-0.110761 0.127758,-0.313006 0.162688,-0.449432 l 0.06351,-0.248046 0.01791,-2.546615 0.01791,-2.546615 h 1.088913 1.088913 v 4.101042 4.101042 h -0.985207 -0.985207 l -0.0096,-0.471289 c -0.0053,-0.259209 -0.022,-0.471289 -0.03717,-0.471289 -0.01517,0 -0.108951,0.09595 -0.2084,0.213217 -0.325661,0.384016 -0.810685,0.672554 -1.369561,0.814742 l -0.27655,0.07036 -0.449392,0.01214 -0.449393,0.01214 z M 54.38626,43.467456 c -0.02815,-0.07019 -0.02023,-7.527701 0.0084,-7.885186 l 0.0225,-0.28112 h 1.03706 1.03706 l -0.01035,0.487826 -0.01035,0.487825 0.02763,-3.2e-4 c 0.0152,-1.77e-4 0.125412,-0.10385 0.244919,-0.230386 l 0.217286,-0.230065 0.265824,-0.16696 c 0.32551,-0.204447 0.688213,-0.341634 1.098026,-0.415309 l 0.310267,-0.05578 0.501246,0.01665 0.501246,0.01665 0.2587,0.072 c 0.575824,0.160264 0.970556,0.436944 1.410787,0.988867 l 0.06223,0.07802 0.146721,-0.185922 c 0.308969,-0.39152 0.864958,-0.733232 1.440153,-0.885122 l 0.276549,-0.07303 0.639521,-8.41e-4 0.63952,-8.42e-4 0.274544,0.07345 c 0.378889,0.101362 0.735189,0.277067 1.009996,0.498066 l 0.232143,0.186689 0.164882,0.23151 c 0.196974,0.276568 0.346773,0.625543 0.433001,1.008724 l 0.06326,0.28112 v 3.009635 3.009636 h -1.088914 -1.088913 l -0.01728,-2.761589 -0.01729,-2.761588 -0.08009,-0.212232 c -0.140813,-0.373129 -0.330311,-0.573238 -0.680419,-0.718519 l -0.138274,-0.05738 -0.362971,-4.67e-4 -0.362971,-4.67e-4 -0.190128,0.07222 -0.190128,0.07222 -0.176168,0.147573 -0.176167,0.147573 -0.125525,0.228538 c -0.06904,0.125696 -0.152177,0.323742 -0.184751,0.440102 l -0.05923,0.211564 -0.01934,2.596224 -0.01934,2.596224 h -1.088913 -1.088913 l -0.01903,-2.711979 -0.01903,-2.71198 -0.04048,-0.135614 C 59.22752,37.182381 58.588574,36.83452 57.760561,37.02129 57.13718,37.161902 56.821187,37.505236 56.66255,38.214306 l -0.05858,0.261844 0.0062,2.464231 c 0.0034,1.355327 -0.0041,2.490142 -0.01685,2.52181 l -0.02309,0.05758 h -1.081516 -1.081517 z m -6.329766,-0.03389 c -0.13309,-0.02626 -0.353935,-0.101094 -0.490767,-0.166308 L 47.316941,43.148689 47.165856,43.006183 C 46.975709,42.826834 46.814733,42.539944 46.71756,42.207237 l -0.07548,-0.25843 -0.01204,-2.554883 c -0.0066,-1.405186 -0.01505,-2.557731 -0.01874,-2.561212 -0.0037,-0.0035 -0.286704,-0.01464 -0.628934,-0.0248 l -0.622236,-0.01848 -0.0093,-0.723425 -0.0093,-0.723424 0.03882,-0.04475 0.03882,-0.04475 0.592741,-0.009 0.592742,-0.009 0.01728,-0.777214 0.01729,-0.777214 0.328402,-0.154158 c 0.914016,-0.429056 1.593416,-0.724252 1.624535,-0.705852 l 0.03476,0.02056 v 1.205209 1.20521 h 0.690157 0.690157 l 0.03579,0.06397 0.03578,0.06397 -5.29e-4,0.671901 c -2.91e-4,0.369545 -0.01267,0.69018 -0.0275,0.71252 l -0.02697,0.04062 -0.689799,0.009 -0.6898,0.009 v 2.265494 2.265495 l 0.08112,0.124825 c 0.09885,0.152118 0.232909,0.22248 0.467229,0.245234 l 0.177596,0.01725 0.310919,-0.05163 0.310918,-0.05163 0.02817,0.02695 c 0.01549,0.01482 0.04477,0.371285 0.06506,0.792135 l 0.03689,0.765183 -0.03852,0.04441 c -0.04973,0.05733 -0.223964,0.106087 -0.605613,0.169482 l -0.307004,0.051 -0.436222,-0.0027 -0.436223,-0.0027 z m 3.149629,0.0013 c -0.02828,-0.0705 -0.02053,-7.526712 0.0082,-7.885639 l 0.0225,-0.28112 h 1.106197 1.106198 v 4.101042 4.101042 l -1.11096,0.0087 -1.110959,0.0087 z m 0.822556,-9.042345 c -0.238508,-0.04837 -0.472352,-0.172201 -0.656918,-0.34786 l -0.17617,-0.167666 -0.07445,-0.190385 -0.07445,-0.190385 v -0.193399 -0.193399 l 0.05894,-0.174601 0.05894,-0.174601 0.181934,-0.188007 0.181933,-0.188007 0.217161,-0.0953 0.217162,-0.0953 0.329129,-6.39e-4 0.329129,-6.4e-4 0.230359,0.108498 0.230358,0.108499 0.155954,0.165953 0.155955,0.165953 0.0744,0.188569 0.07441,0.18857 -0.01533,0.237224 -0.01533,0.237224 -0.09353,0.182888 -0.09353,0.182889 -0.172774,0.148617 -0.172774,0.148618 -0.186698,0.06683 c -0.219858,0.0787 -0.564711,0.110243 -0.763809,0.06986 z"
           id="path113" /></g></g></g></svg>
