<?xml version="1.0" encoding="UTF-8" standalone="no"?>
<!-- Created with Inkscape (http://www.inkscape.org/) -->

<svg
   width="68.791664mm"
   height="23.393713mm"
   viewBox="0 0 68.791664 23.393713"
   version="1.1"
   id="svg1"
   xml:space="preserve"
   xmlns="http://www.w3.org/2000/svg"
   xmlns:svg="http://www.w3.org/2000/svg"><defs
     id="defs1" /><g
     id="layer1"
     transform="translate(-4.6944217,25.591536)"><g
       id="g62"
       transform="matrix(0.30633271,0,0,0.30633271,101.68584,-41.047897)"><path
         style="fill:#a6d6f7"
         d="m -282.68822,126.59699 c -4.28174,-0.48363 -8.41286,-1.687 -12.44692,-3.6257 -6.24986,-3.00358 -12.39561,-8.59591 -16.0474,-14.60234 -6.01232,-9.889045 -7.13149,-22.88083 -2.89899,-33.65277 3.269,-8.319766 9.30446,-15.176321 17.31121,-19.666304 5.63061,-3.157504 10.15916,-4.348388 17.30432,-4.550557 7.09103,-0.200637 11.75851,0.75903 17.54757,3.6079 4.10578,2.020506 7.25327,4.27396 10.56482,7.563899 5.48577,5.449983 8.78825,11.538405 10.38984,19.154604 0.87276,4.150365 0.99351,10.314025 0.27781,14.181766 -2.29041,12.377752 -9.80897,22.398522 -21.01728,28.011942 -6.0592,3.0346 -13.92295,4.37523 -20.98498,3.57756 z m 7.94444,-3.94731 c 8.20701,-0.99329 14.73097,-4.14402 20.51509,-9.90769 5.42653,-5.40734 8.75738,-12.12045 9.78397,-19.718877 0.20643,-1.527969 0.373,-3.135313 0.37014,-3.571875 l -0.005,-0.79375 -0.38031,0.875505 c -0.20917,0.481528 -1.27322,1.894083 -2.36456,3.139012 -2.32636,2.653759 -2.52303,3.27361 -1.87918,5.922636 0.24569,1.010887 0.37744,2.056269 0.29276,2.323059 -0.0847,0.2668 -0.65817,0.71302 -1.27442,0.9916 -1.08981,0.49267 -1.12264,0.54443 -1.20032,1.89259 -0.07,1.215 -0.18829,1.46876 -0.95839,2.05614 -0.49748,0.37945 -1.07202,1.17675 -1.32465,1.83826 -0.60431,1.58235 -2.15955,2.93088 -3.99577,3.46469 -0.81717,0.23756 -1.52243,0.39114 -1.56725,0.3413 -0.0448,-0.0498 -0.40495,-1.15849 -0.80031,-2.46366 -0.39535,-1.30518 -1.20114,-3.32924 -1.79065,-4.49792 l -1.07183,-2.12488 0.30426,-1.79085 c 0.47532,-2.797776 0.38478,-3.857994 -0.47412,-5.551489 -0.42442,-0.836829 -0.96156,-2.174708 -1.19365,-2.973065 -0.33496,-1.152225 -0.59327,-1.540135 -1.25263,-1.881104 -0.83571,-0.432162 -1.09052,-0.429502 -4.9192,0.05136 l -1.39697,0.175453 -1.55109,-1.555777 c -1.29782,-1.301737 -1.64216,-1.85195 -2.10876,-3.369584 -1.10085,-3.58053 -0.68349,-5.086075 2.35238,-8.485832 1.02477,-1.1476 1.92612,-2.337131 2.00298,-2.643402 0.0769,-0.30627 -0.0446,-0.998133 -0.26996,-1.537472 -0.22535,-0.539339 -0.40973,-1.26604 -0.40973,-1.614891 0,-0.893765 0.9037,-1.936484 1.98863,-2.294543 0.8906,-0.293923 1.02265,-0.503439 1.24409,-1.973876 0.0431,-0.286039 0.37513,-0.656171 0.7379,-0.822515 3.71239,-1.702261 4.02255,-2.002072 3.46257,-3.347037 -0.70937,-1.703783 -0.66211,-2.626423 0.19506,-3.807609 l 0.79019,-1.088899 -2.29099,-0.932094 c -1.26005,-0.512651 -3.13862,-1.169924 -4.17461,-1.460606 l -1.88362,-0.528513 -0.42103,0.882909 c -0.53484,1.121583 -1.06029,1.454825 -4.14611,2.629466 -1.38244,0.526241 -3.05974,1.306874 -3.72733,1.73474 -1.48944,0.954608 -1.83114,0.964532 -2.87808,0.08359 l -0.82519,-0.694347 0.17506,-2.157425 c 0.2325,-2.865509 0.0491,-3.040036 -2.53041,-2.407895 -1.04041,0.254964 -1.85571,0.597155 -1.85571,0.778857 0,0.178251 0.47625,0.706817 1.05833,1.174592 0.58208,0.467775 1.05833,1.014206 1.05833,1.21429 0,0.471869 -2.0569,2.232026 -2.83717,2.427862 -0.33133,0.08316 -0.90007,0.07649 -1.26387,-0.01482 -0.76684,-0.192466 -0.89362,-1.07076 -0.273,-1.891301 0.53703,-0.710017 0.5029,-0.877337 -0.24883,-1.21985 -0.55197,-0.251496 -0.79971,-0.19896 -1.58629,0.336401 -0.51269,0.348943 -1.11032,1.007553 -1.32807,1.463579 -0.35527,0.744035 -0.55227,0.848521 -1.91944,1.017999 -2.83989,0.352042 -4.25928,1.408746 -3.88662,2.89352 0.49887,1.987659 3.17792,1.9331 4.40614,-0.08973 0.31616,-0.520717 0.70019,-1.034231 0.8534,-1.141144 0.38737,-0.270328 1.67237,-0.251282 1.84457,0.02734 0.0781,0.126406 0.63351,0.308418 1.23419,0.404471 1.97912,0.316475 3.45485,2.606454 2.1349,3.312869 -0.26886,0.143891 -1.25113,0.380732 -2.18281,0.526314 -1.57358,0.245882 -1.76919,0.354876 -2.7523,1.533626 -1.65655,1.986183 -2.90045,3.135043 -4.13175,3.816062 -0.62437,0.345329 -1.54193,1.161767 -2.03903,1.814308 -0.4971,0.652541 -1.45198,1.545509 -2.12194,1.984375 -0.91228,0.597593 -1.32828,1.096877 -1.65684,1.988563 -0.24494,0.664751 -0.63601,1.229978 -0.88542,1.279723 -0.24569,0.049 -0.9121,-0.218886 -1.48092,-0.595312 -1.24768,-0.825673 -2.53247,-0.881463 -3.9261,-0.170486 -1.27157,0.648705 -1.91167,1.616456 -1.92962,2.917353 -0.0159,1.149403 0.13219,1.480827 0.82783,1.853123 0.37046,0.198264 0.71751,0.103137 1.45867,-0.399824 0.5349,-0.362993 1.08342,-0.591462 1.21893,-0.507709 0.13552,0.08375 0.24639,0.681033 0.24639,1.327288 0,1.158367 0.0127,1.175011 0.89365,1.175011 1.15318,0 1.62043,0.517477 1.09466,1.212332 -0.84409,1.115538 -0.11682,2.672892 0.94001,2.012895 0.27725,-0.173146 0.81512,-0.314811 1.19527,-0.314811 0.42683,0 0.97479,-0.30359 1.43266,-0.79375 0.49614,-0.531111 0.99688,-0.79375 1.51334,-0.79375 1.36539,0 3.45923,0.782058 4.62655,1.728034 1.54268,1.250157 3.06286,1.963346 4.19978,1.970322 0.87438,0.0054 0.99406,0.106359 1.56134,1.317534 0.87818,1.874952 1.74224,2.585255 3.85882,3.172165 1.3268,0.367912 2.03433,0.733513 2.56164,1.323675 0.91873,1.028232 0.91214,1.426773 -0.0552,3.344625 -0.52198,1.034836 -0.84353,2.160286 -0.96268,3.369456 -0.18735,1.90134 -0.34357,2.11096 -2.5977,3.48565 -0.27272,0.16632 -0.53524,0.9027 -0.70685,1.98278 -0.35033,2.20481 -1.05566,3.7823 -2.23179,4.99145 -1.17321,1.20615 -1.45025,2.19573 -1.04743,3.74139 0.40614,1.5584 0.97707,2.62947 1.82279,3.41956 0.84422,0.78869 0.87615,1.27729 0.0913,1.39673 -0.86836,0.13215 3.44428,1.28274 6.28385,1.67651 3.04268,0.42193 5.5229,0.45613 8.34132,0.11502 z m -17.92805,-3.30151 c -0.80595,-0.68987 -1.53038,-1.82363 -2.83172,-4.43177 l -1.74871,-3.50474 -0.24834,-3.43959 c -0.34025,-4.7125 -0.55223,-5.22664 -2.89909,-7.03155 -2.10762,-1.62091 -3.15585,-2.985606 -3.97508,-5.175193 -0.68785,-1.838454 -0.67942,-2.067036 0.15968,-4.330819 0.80488,-2.171457 0.71581,-2.383706 -1.04204,-2.482939 -1.45566,-0.08217 -1.95624,-0.457891 -2.59478,-1.947533 -0.32759,-0.764231 -0.72399,-1.218827 -1.22062,-1.399825 -0.40452,-0.147425 -1.09735,-0.457045 -1.53962,-0.688044 -1.41395,-0.738501 -1.81243,-0.449265 -2.061,1.495972 -0.43599,3.411812 0.47876,9.599052 2.08214,14.083371 2.19451,6.13757 6.63588,11.88898 12.47182,16.15058 1.14986,0.83966 6.05089,3.60771 6.41661,3.62403 0.0626,0.003 -0.37359,-0.41208 -0.96925,-0.92195 z m 48.49869,-32.774276 c -0.0828,-0.418372 -0.1505,-0.913244 -0.1505,-1.099714 0,-0.265695 -0.20182,-0.277097 -0.93294,-0.05271 -1.32605,0.406975 -2.16358,-0.292778 -3.1681,-2.646936 -0.93058,-2.180859 -1.86314,-3.453948 -3.02261,-4.126299 l -0.83508,-0.484251 0.77643,1.278001 c 0.42704,0.702901 1.34878,2.802819 2.0483,4.666486 l 1.27188,3.388484 2.08156,-0.08119 2.08156,-0.08119 z m -14.25679,-11.302428 c 0.55025,-0.21361 1.21141,-0.20252 2.53082,0.04245 1.988,0.369103 3.11202,0.101265 3.10475,-0.739817 -0.009,-1.017016 -0.44319,-1.251979 -2.43102,-1.314929 l -1.93055,-0.06114 -1.5875,-1.704854 c -1.93662,-2.079785 -2.80389,-2.655562 -3.62507,-2.406682 -0.84889,0.257277 -4.36401,2.918507 -4.71077,3.566432 -0.40741,0.761249 0.29957,0.967683 1.8282,0.533829 2.25236,-0.639262 2.57117,-0.636505 3.03538,0.02624 0.23625,0.337299 0.42955,0.821102 0.42955,1.075117 0,0.523238 1.16456,1.245983 2.0333,1.261902 0.31795,0.0058 0.91326,-0.119523 1.32291,-0.278553 z m 69.46289,27.416954 c -2.83151,-0.88419 -4.32608,-3.225394 -4.50962,-7.06423 l -0.11171,-2.336494 h 2.41362 2.41361 l 0.001,1.256771 c 0.002,1.752487 0.45015,3.181032 1.10829,3.533256 0.9153,0.489858 2.60808,0.341056 3.23251,-0.284151 0.46064,-0.461213 0.55079,-0.870809 0.54216,-2.463389 -0.014,-2.582083 -0.4892,-3.386629 -4.09755,-6.937279 -3.1252,-3.075221 -4.142,-4.361322 -4.81116,-6.085416 -1.02458,-2.639809 -0.7696,-6.288565 0.58916,-8.431114 1.40355,-2.213157 4.61695,-3.36702 7.77968,-2.793508 1.98515,0.359977 2.76503,0.76036 3.8188,1.960539 1.18577,1.350518 1.64971,2.616899 1.81876,4.964603 l 0.14765,2.050521 h -2.38231 -2.38231 l -0.14731,-1.624568 c -0.19004,-2.095778 -0.77161,-2.741057 -2.47045,-2.741057 -1.6515,0 -2.22035,0.704831 -2.21242,2.741291 0.009,2.293804 0.61349,3.255117 4.44049,7.060888 4.29205,4.268234 4.892,5.346199 5.03508,9.04676 0.12344,3.192711 -0.40209,4.953758 -1.95514,6.551727 -1.78098,1.8325 -5.31526,2.51479 -8.26131,1.59485 z m 33.55444,-0.0336 c -1.77215,-0.64365 -2.82804,-1.58343 -3.64253,-3.24198 l -0.73414,-1.494935 V 87.069988 c 0,-10.744339 0.006,-10.860457 0.60542,-12.161167 0.33298,-0.722288 0.80923,-1.541403 1.05834,-1.820256 1.4598,-1.634144 4.51341,-2.52041 7.06124,-2.049419 4.17099,0.77105 6.0713,3.55875 5.90394,8.660899 l -0.0769,2.342859 -2.31511,0.07645 -2.3151,0.07645 -0.0149,-2.060822 c -0.0256,-3.537939 -0.92708,-4.853623 -3.05229,-4.454931 -1.78009,0.333947 -1.81717,0.531407 -1.91331,10.187058 -0.0881,8.84474 0.0161,11.014865 0.5641,11.757595 0.77817,1.054613 3.32485,0.940689 3.92977,-0.175796 0.17561,-0.324132 0.37194,-1.928784 0.43627,-3.565893 l 0.11698,-2.976563 h 2.37391 2.37392 l -0.0991,3.505729 c -0.0805,2.846301 -0.20247,3.729687 -0.64854,4.696355 -0.65881,1.427704 -1.69955,2.504954 -3.13723,3.247284 -1.43598,0.74145 -4.82558,0.89799 -6.47472,0.29901 z m 17.38624,0.0211 c -2.56194,-0.94092 -3.99844,-3.016251 -4.45958,-6.442786 -0.17922,-1.331665 -0.24436,-5.347486 -0.17318,-10.675967 0.12785,-9.571111 0.27729,-10.524849 1.937,-12.36195 1.36223,-1.507825 3.22506,-2.222119 5.80369,-2.2254 3.36152,-0.0043 5.33264,1.072769 6.70692,3.664744 l 0.70141,1.322916 v 11.112501 c 0,10.957238 -0.008,11.127769 -0.58454,12.205322 -0.81156,1.51724 -2.23785,2.7936 -3.71887,3.32795 -1.52452,0.55003 -4.8085,0.58845 -6.21285,0.0727 z m 4.64681,-4.778353 c 0.2643,-0.156701 0.58889,-0.752014 0.72129,-1.322917 0.3328,-1.434921 0.31795,-17.992803 -0.0172,-19.199472 -0.35354,-1.27281 -0.83342,-1.626899 -2.24587,-1.657159 -0.88916,-0.01905 -1.31853,0.120534 -1.77555,0.577218 -0.60217,0.601734 -0.60286,0.612094 -0.68117,10.231815 -0.0885,10.871744 -0.0301,11.304845 1.58106,11.730353 0.90322,0.238539 1.57748,0.138175 2.41746,-0.359838 z m -101.61961,-10.821754 0.0682,-15.736874 6.00077,-0.161829 c 3.30042,-0.08901 6.24721,-0.08361 6.54843,0.01199 0.4968,0.157678 0.54767,0.381069 0.54767,2.404953 v 2.231129 h -4.10104 -4.10104 v 4.233333 4.233334 h 3.1853 3.1853 l -0.0764,2.315104 -0.0764,2.315104 -3.10886,0.07454 -3.10885,0.07454 v 6.87077 6.870773 h -2.51562 -2.51563 z m 15.61042,-0.07198 0.0682,-15.808855 1.84654,-0.07962 c 1.01561,-0.04379 2.11693,-0.01175 2.4474,0.07119 l 0.60085,0.150802 V 87.075029 102.8127 h -2.51563 -2.51562 z m 8.46666,0 0.0682,-15.808855 4.63021,0.02672 c 2.58576,0.01492 5.10907,0.160707 5.71473,0.330166 1.59325,0.445787 2.79805,1.361884 3.54569,2.696058 0.59838,1.067826 0.67012,1.524637 0.75234,4.790467 0.10464,4.156306 -0.24586,5.409405 -1.87712,6.711015 l -0.9216,0.735364 1.12784,1.086353 c 1.4649,1.411014 1.71322,2.349403 1.86278,7.039479 0.0673,2.110052 0.16685,4.818724 0.22123,6.01927 l 0.0989,2.18282 h -2.45596 c -2.08734,0 -2.48561,-0.0695 -2.65354,-0.46302 -0.10867,-0.25467 -0.25576,-2.95802 -0.32686,-6.007454 l -0.12928,-5.544426 -0.75283,-0.75284 c -0.67968,-0.679672 -0.90138,-0.745107 -2.28114,-0.673282 l -1.52829,0.07956 -0.0707,6.680729 -0.0707,6.680733 h -2.51108 -2.51108 z m 9.10398,-3.341816 c 0.5618,-0.653128 0.62154,-0.97431 0.62154,-3.341218 0,-2.875485 -0.25892,-3.758373 -1.23225,-4.201853 -1.0058,-0.458274 -3.17676,-0.377899 -3.36965,0.124755 -0.23197,0.604515 -0.19805,7.921883 0.0378,8.161701 0.10914,0.110959 0.90101,0.151672 1.75971,0.09047 1.29721,-0.09245 1.66639,-0.233482 2.18281,-0.833858 z m 29.9021,18.974283 c -0.097,-0.097 -0.17639,-6.169203 -0.17639,-13.493752 V 75.825196 h -2.52384 -2.52385 l 0.0765,-2.315105 0.0764,-2.315104 7.60677,-0.0702 7.60677,-0.0702 v 2.385308 2.385308 h -2.51354 -2.51354 v 13.49375 13.493757 h -2.46945 c -1.35819,0 -2.54882,-0.0794 -2.64583,-0.17639 z m 47.77725,-15.612582 0.0682,-15.82874 4.63021,0.01662 c 2.73031,0.0098 5.07522,0.145275 5.71473,0.330167 2.67581,0.77362 4.18348,2.701002 4.59525,5.874509 0.33187,2.557649 0.33379,16.470561 0.003,19.021882 -0.35483,2.73373 -1.31253,4.363874 -3.18907,5.428294 l -1.435,0.81395 -5.22761,0.086 -5.22761,0.086 z m 9.44174,10.32933 c 0.53159,-0.675806 0.54837,-0.987147 0.54837,-10.17401 0,-6.519736 -0.0939,-9.683044 -0.30105,-10.137607 -0.364,-0.798885 -1.45455,-1.216244 -3.17802,-1.216244 h -1.28343 v 11.1125 11.1125 h 1.83288 c 1.66495,0 1.88312,-0.06387 2.38125,-0.697139 z m 9.0791,-10.344744 0.0682,-15.813326 h 6.746872 6.746875 v 2.248959 2.248958 l -4.306335,0.07273 -4.306332,0.07273 0.073,4.02831 0.073,4.028309 3.373438,0.07405 3.373438,0.07405 v 2.241054 2.241053 h -3.439584 -3.439582 v 4.755946 4.755946 l 4.299478,0.0727 4.299479,0.0727 v 2.248967 2.24895 l -6.815104,0.0706 -6.815103,0.0706 z"
         id="path69" /><path
         style="fill:#97a5f4"
         d="m -281.23301,126.61876 c -7.33183,-0.5747 -14.38705,-3.25247 -20.10834,-7.63199 -10.09478,-7.72733 -15.70912,-19.594318 -15.13251,-31.985437 0.61872,-13.296116 7.6876,-24.836116 19.36585,-31.614933 3.98981,-2.315946 7.44398,-3.547148 12.51684,-4.461486 2.61269,-0.470916 3.75162,-0.535772 7.32691,-0.41723 6.4261,0.213064 10.40151,1.203208 15.7936,3.933674 4.0055,2.028312 7.07952,4.233313 10.0923,7.239204 9.96565,9.942869 13.53517,24.110276 9.54438,37.881646 -2.26164,7.804462 -7.2961,14.838792 -14.39591,20.114482 -1.80027,1.33773 -6.39314,3.77171 -8.8488,4.68938 -4.89039,1.82753 -10.89539,2.66492 -16.15432,2.25269 z m 8.07933,-4.07731 c 7.75634,-1.27187 13.86602,-4.48133 19.38533,-10.18325 5.78166,-5.97295 9.07325,-13.305594 9.58657,-21.35594 0.13828,-2.168575 0.12125,-2.283972 -0.22662,-1.535671 -0.20688,0.445006 -1.17156,1.695162 -2.14372,2.778125 -0.97217,1.082963 -1.95315,2.315921 -2.17997,2.739906 -0.4255,0.795371 -0.38691,2.212577 0.12472,4.580468 0.29616,1.370712 -0.0724,2.014102 -1.40563,2.454132 -0.89058,0.29391 -0.92522,0.35411 -0.92522,1.60775 0,1.27155 -0.32354,1.87361 -1.35921,2.52931 -0.19832,0.12556 -0.68119,0.90164 -1.07305,1.72463 -0.86046,1.80717 -2.10958,2.82596 -4.00515,3.2666 l -1.39776,0.32492 -0.62681,-2.27166 c -0.34474,-1.24941 -1.15718,-3.32484 -1.80542,-4.61207 l -1.17862,-2.34041 0.45295,-2.09638 c 0.52457,-2.427841 0.42705,-3.122912 -0.77742,-5.541297 -0.4711,-0.945885 -0.93482,-2.14993 -1.03049,-2.675655 -0.35345,-1.942177 -1.97585,-2.585059 -4.83492,-1.915857 -2.32244,0.543598 -3.05771,0.315343 -4.58936,-1.424701 -1.37961,-1.56732 -2.18395,-3.708167 -2.22012,-5.909116 -0.0328,-1.996454 0.38174,-2.792005 3.02327,-5.801755 2.14865,-2.448175 2.21004,-2.611402 1.54633,-4.111812 -0.79689,-1.801513 -0.49069,-2.693316 1.22813,-3.576892 1.18532,-0.60933 1.32575,-0.776498 1.40035,-1.666957 0.066,-0.787316 0.22828,-1.04875 0.79375,-1.278407 3.76227,-1.527984 4.09194,-1.924788 3.36877,-4.054836 -0.50212,-1.478934 -0.25626,-2.592283 0.78937,-3.574599 l 0.65382,-0.614233 -2.02339,-0.892335 c -1.58369,-0.698423 -6.07813,-2.190347 -6.59845,-2.190347 -0.0528,0 -0.29585,0.386954 -0.54023,0.859896 -0.59832,1.157909 -0.8903,1.347523 -3.80259,2.469398 -1.38245,0.532548 -3.05975,1.311005 -3.72733,1.729905 -1.50024,0.941378 -2.4396,0.96876 -3.31182,0.09654 -0.59988,-0.599878 -0.64476,-0.78798 -0.45763,-1.918229 0.26254,-1.585727 0.19968,-2.967522 -0.15094,-3.318141 -0.28684,-0.286844 -3.54251,0.167275 -4.22552,0.589401 -0.48033,0.29686 -0.0429,1.054557 1.00461,1.740192 1.13232,0.741144 1.17149,1.057472 0.24557,1.983393 -1.78022,1.780222 -3.66444,2.058256 -3.66444,0.540723 0,-0.425202 0.11906,-0.846679 0.26458,-0.936616 0.41299,-0.255243 0.31061,-1.11635 -0.15393,-1.294609 -1.11113,-0.426382 -2.04783,0.151189 -3.7591,2.317866 -0.18817,0.238242 -0.72211,0.432613 -1.19063,0.433427 -2.26149,0.0039 -4.15676,1.203858 -4.15676,2.631724 0,2.494062 3.60854,2.499973 4.89718,0.008 0.49986,-0.966613 1.22442,-1.185424 2.22021,-0.67048 0.43661,0.225779 1.10656,0.410507 1.48879,0.410507 0.90298,0 2.24174,1.325359 2.24174,2.219297 0,0.834006 -0.4948,1.101624 -2.4829,1.342887 -1.67885,0.203737 -1.72424,0.23675 -3.95421,2.876199 -0.70275,0.831798 -1.8503,1.839363 -2.55009,2.239034 -0.6998,0.399671 -1.70964,1.259894 -2.24409,1.911608 -0.53446,0.651714 -1.58014,1.601653 -2.32373,2.110976 -1.05623,0.723458 -1.41609,1.157566 -1.64498,1.984375 -0.37077,1.339289 -1.1198,1.504416 -2.49649,0.550365 -0.54179,-0.375461 -1.27633,-0.680042 -1.63231,-0.676846 -1.031,0.0093 -2.72185,0.901229 -3.53078,1.862588 -0.63216,0.751271 -0.72559,1.057497 -0.61689,2.02188 0.22794,2.022286 1.19108,2.473672 2.65315,1.243425 l 0.81661,-0.68713 0.21827,0.59004 c 0.12004,0.324522 0.18648,0.897035 0.14762,1.272252 -0.0622,0.600528 0.0485,0.702263 0.92447,0.849665 1.33252,0.224229 1.41873,0.362949 0.86483,1.39148 -0.38312,0.711418 -0.41486,0.99084 -0.1655,1.45679 0.32687,0.610762 1.44618,0.795687 1.7584,0.290511 0.0972,-0.157312 0.45962,-0.21503 0.80533,-0.128262 0.64268,0.161302 1.69496,-0.585601 1.69496,-1.203073 0,-0.197167 0.59168,-0.261008 1.79098,-0.193242 1.87055,0.105696 2.43991,0.365867 5.44882,2.489842 0.88974,0.628066 1.58353,0.909507 2.24895,0.912309 1.25171,0.0053 1.42715,0.140742 2.22191,1.71574 0.90147,1.786459 1.46052,2.23057 3.53034,2.804514 2.13484,0.591974 2.95128,1.094503 3.31102,2.037969 0.22876,0.599941 0.13839,0.974842 -0.56665,2.35088 -0.59517,1.161602 -0.88899,2.176089 -1.01157,3.492719 l -0.17276,1.8556 -1.45314,1.01358 c -1.32529,0.9244 -1.4688,1.1231 -1.6312,2.25843 -0.31523,2.20373 -1.03886,3.90505 -2.23267,5.24922 -0.63658,0.71675 -1.23391,1.60799 -1.32741,1.98053 -0.30256,1.20548 0.64542,3.98278 1.77172,5.19063 0.558,0.59841 0.96054,1.17541 0.89451,1.28224 -0.15853,0.25652 -1.6336,-0.0876 -2.66326,-0.62124 -1.28283,-0.6649 -2.27672,-1.98248 -3.92255,-5.20007 l -1.52177,-2.97503 -0.35782,-3.91537 c -0.19679,-2.15346 -0.53127,-4.33052 -0.74327,-4.83791 -0.25356,-0.60685 -0.88867,-1.25655 -1.85598,-1.89861 -1.85725,-1.232778 -2.98129,-2.510029 -3.81875,-4.339295 -0.95077,-2.07676 -1.03806,-3.432173 -0.3329,-5.169564 0.3213,-0.79164 0.54479,-1.717567 0.49663,-2.057617 -0.0765,-0.540284 -0.25443,-0.628734 -1.41047,-0.701208 -1.50907,-0.09461 -2.39007,-0.736936 -2.65306,-1.934338 -0.17702,-0.80595 -1.01291,-1.554602 -1.73576,-1.554602 -0.23904,0 -0.73655,-0.237504 -1.10558,-0.527786 -0.49021,-0.385599 -0.89186,-0.483608 -1.49089,-0.363802 l -0.81992,0.163984 8.4e-4,3.472656 c 0.002,7.620867 2.37382,15.094442 6.57177,20.706332 1.8998,2.53968 5.35565,5.97226 7.84718,7.79435 3.77672,2.76196 9.44722,5.09617 14.41979,5.93579 2.69728,0.45543 8.1098,0.46028 10.85746,0.01 z m 28.38041,-35.16258 c 0.70371,0.01273 0.73699,-0.04009 0.66146,-1.049893 l -0.0795,-1.063295 -1.45521,-0.02389 -1.4552,-0.02389 -1.19063,-2.437611 c -1.23755,-2.53368 -2.05693,-3.582715 -3.43356,-4.395912 l -0.81148,-0.479348 0.78093,1.231388 c 0.42951,0.677264 1.22036,2.382191 1.75745,3.788728 0.53709,1.406536 1.19967,3.076974 1.47239,3.712083 l 0.49587,1.154744 1.25826,-0.213254 c 0.69205,-0.11729 1.59171,-0.207224 1.99926,-0.199852 z m -13.77306,-11.984064 c 0.69774,-0.360813 1.04105,-0.3822 2.12371,-0.132292 2.54453,0.587347 3.63231,0.306998 3.63231,-0.936134 0,-0.827077 -0.74053,-1.147018 -2.65489,-1.147018 -1.48902,0 -1.70583,-0.07502 -2.48493,-0.859896 -0.46946,-0.472942 -0.96357,-1.038698 -1.09802,-1.257234 -0.13445,-0.218536 -0.7094,-0.796664 -1.27768,-1.284728 -1.34664,-1.156555 -2.24506,-1.027322 -4.40328,0.633394 -3.50099,2.693951 -3.4683,3.678941 0.0905,2.727101 1.61625,-0.432282 2.43325,-0.16428 2.73247,0.896339 0.1683,0.59654 0.52943,1.008323 1.16416,1.327426 1.12529,0.565725 1.14495,0.566023 2.17562,0.03304 z m 71.10811,27.508884 c -2.70352,-0.51578 -4.09471,-1.43839 -5.0794,-3.368528 -0.70908,-1.389912 -1.02677,-5.639846 -0.44894,-6.005733 0.44536,-0.282004 3.43617,-0.312822 3.80854,-0.03924 0.14553,0.106913 0.28979,0.90402 0.32059,1.771351 0.0678,1.909536 0.64844,2.818394 2.02312,3.166846 0.74451,0.188716 1.18163,0.145013 1.87985,-0.187947 1.57967,-0.753291 1.85254,-3.384074 0.60976,-5.87878 -0.28997,-0.582084 -2.00343,-2.506299 -3.80768,-4.276035 -2.70538,-2.653628 -3.43068,-3.534891 -4.13742,-5.027083 -0.79236,-1.672971 -0.85612,-2.008856 -0.84575,-4.455216 0.009,-2.212416 0.11143,-2.851198 0.62299,-3.899496 1.14941,-2.355402 3.44801,-3.64113 6.50954,-3.64113 4.43643,0 6.86949,2.510026 7.05294,7.276042 l 0.0611,1.5875 h -2.2341 -2.2341 l -0.13347,-1.677979 c -0.10725,-1.348316 -0.25596,-1.777161 -0.75692,-2.182812 -1.02917,-0.833372 -2.51686,-0.754726 -3.47524,0.183716 -0.56926,0.557422 -0.65959,0.877262 -0.64809,2.29468 0.008,1.046847 0.18749,1.984413 0.49123,2.57302 0.26283,0.509323 1.98323,2.414323 3.8231,4.233334 3.68621,3.644411 4.58512,5.005247 5.0684,7.672917 0.80335,4.434492 -1.05367,8.678853 -4.15558,9.497873 -1.32299,0.34932 -3.48449,0.54105 -4.31447,0.3827 z m 33.46979,0.0514 c -0.14552,-0.0626 -0.77216,-0.24435 -1.39254,-0.40384 -1.3642,-0.3507 -2.81814,-1.57256 -3.52876,-2.965497 -0.87326,-1.711723 -1.09244,-4.964113 -0.96707,-14.350301 0.13047,-9.768217 0.23104,-10.39599 1.94896,-12.16487 1.31233,-1.351261 2.27809,-1.768502 4.47869,-1.934933 3.71915,-0.281278 5.95119,0.784298 7.26848,3.469973 0.67349,1.373093 0.81871,2.044703 0.96453,4.46074 l 0.17167,2.84427 h -2.39592 -2.39592 l -0.0917,-2.53676 c -0.0867,-2.399224 -0.13193,-2.571364 -0.83404,-3.175 -0.50151,-0.431175 -1.05947,-0.63551 -1.71979,-0.629825 -1.15058,0.0099 -1.77891,0.42326 -2.15766,1.419434 -0.42321,1.113144 -0.36235,19.418372 0.0674,20.267985 0.75745,1.497503 3.19546,1.695395 4.0914,0.332097 0.34138,-0.519464 0.49535,-1.460336 0.59331,-3.625656 l 0.13229,-2.924149 h 2.24896 2.24896 l 0.0787,1.968341 c 0.0984,2.459678 -0.33035,5.308604 -0.995,6.611428 -0.66292,1.299433 -2.12379,2.563853 -3.376,2.922013 -1.11442,0.31876 -4.02912,0.59096 -4.439,0.41455 z m 16.053,-0.38186 c -1.73361,-0.59872 -3.31967,-2.09176 -3.94612,-3.714671 -0.4164,-1.078757 -0.46522,-2.329582 -0.46522,-11.920843 V 76.222071 l 0.73414,-1.494935 c 1.22201,-2.48839 3.364,-3.664441 6.6742,-3.664441 3.3102,0 5.45219,1.176051 6.67419,3.664441 l 0.73414,1.494935 v 10.715625 c 0,10.70611 -5.6e-4,10.716857 -0.62694,12.102477 -0.34482,0.762768 -1.08187,1.797847 -1.63788,2.300177 -1.85132,1.67255 -5.3383,2.20065 -8.14051,1.23286 z m 4.04253,-4.368323 c 0.49294,-0.205962 1.02904,-0.622592 1.19133,-0.925845 0.20604,-0.384977 0.27235,-3.552645 0.21974,-10.496583 l -0.0754,-9.945214 -0.74236,-0.638316 c -0.81921,-0.704393 -2.39256,-0.855404 -3.11703,-0.299173 -0.98806,0.758611 -1.0354,1.272968 -1.0354,11.249448 0,9.402794 0.0202,9.796919 0.53443,10.450725 0.46228,0.587682 0.78307,0.745187 1.92146,0.943403 0.11381,0.01982 0.61025,-0.132483 1.10318,-0.338445 z m -101.01393,4.431423 c -0.097,-0.097 -0.17639,-7.181235 -0.17639,-15.742711 v -15.56632 h 6.48229 6.48229 v 2.109775 2.109776 l -4.0349,0.07304 -4.03489,0.07304 -0.0727,4.292801 -0.0727,4.292802 0.62963,0.158025 c 0.34629,0.08691 1.77034,0.119685 3.16456,0.07282 l 2.53494,-0.0852 0.0831,2.175824 0.0831,2.175824 -3.175,0.07313 -3.175,0.07314 -0.0705,6.945313 -0.0705,6.945311 h -2.20047 c -1.21025,0 -2.27984,-0.0794 -2.37685,-0.17639 z m 15.43402,-15.566322 V 71.327279 h 2.38125 2.38125 V 87.069988 102.8127 h -2.38125 -2.38125 z m 8.73125,-0.02853 V 71.27022 l 4.96094,0.105332 c 4.29975,0.09129 5.12079,0.177888 6.1603,0.649717 2.59568,1.17816 3.56634,3.484129 3.37913,8.027698 -0.13672,3.318474 -0.74892,4.931285 -2.21601,5.837998 -0.499,0.308397 -0.90457,0.640309 -0.90126,0.737581 0.003,0.09727 0.39025,0.361049 0.85989,0.586172 0.56579,0.271212 1.0758,0.851468 1.5116,1.719792 0.62214,1.23959 0.66636,1.625347 0.81755,7.131311 0.0879,3.201459 0.25116,6.029189 0.36278,6.283859 0.18496,0.42198 -0.0112,0.46302 -2.21316,0.46302 -2.35008,0 -2.42316,-0.0186 -2.67414,-0.67869 -0.14192,-0.37327 -0.25803,-2.877408 -0.25803,-5.564744 0,-6.624237 -0.25743,-7.204489 -3.30472,-7.449097 l -1.72237,-0.138255 v 6.915391 6.915395 h -2.38125 -2.38125 z m 8.64946,-2.890648 c 0.83225,-0.545309 1.21738,-2.263361 1.08345,-4.833291 -0.10061,-1.930596 -0.19759,-2.279355 -0.80185,-2.883618 -0.58723,-0.587228 -0.93142,-0.691306 -2.36183,-0.714199 l -1.67443,-0.0268 -0.0731,4.222713 c -0.0402,2.322492 -0.008,4.392425 0.0716,4.599852 0.18354,0.478282 2.86741,0.21773 3.75624,-0.364659 z m 30.24429,5.195674 V 75.880272 l -2.09275,-0.185251 c -1.15101,-0.101888 -2.34163,-0.106256 -2.64583,-0.0097 -0.53168,0.168748 -0.55308,0.08781 -0.55308,-2.091246 v -2.266788 h 7.67291 7.67292 v 2.248958 2.248959 h -2.64583 -2.64584 v 13.49375 13.493756 h -2.38125 -2.38125 z m 47.88959,-2.276496 V 71.327279 h 4.58218 c 5.47221,0 6.75138,0.283314 8.30819,1.840126 1.85097,1.850976 1.92629,2.388714 1.92629,13.752652 0,11.497685 -0.0806,12.074115 -1.94956,13.943083 -1.63375,1.63374 -2.99727,1.94956 -8.41721,1.94956 h -4.44989 z m 9.20124,10.366048 0.72063,-0.720486 v -9.320698 c 0,-5.126384 -0.091,-9.645954 -0.20227,-10.04349 -0.29033,-1.037482 -1.4858,-1.568607 -3.31518,-1.472875 l -1.50963,0.079 -0.0692,10.847661 c -0.038,5.966213 -0.007,11.010376 0.0696,11.20925 0.10396,0.27091 0.57093,0.334071 1.86208,0.251856 1.44166,-0.0918 1.84111,-0.227491 2.44396,-0.830218 z m 9.05501,-10.366048 V 71.327279 h 6.746871 6.746875 v 2.248958 2.248959 h -4.233334 -4.233332 v 4.101041 4.101042 h 3.439582 3.439584 v 2.248959 2.248958 h -3.439584 -3.439582 v 4.894792 4.894792 h 4.233332 4.233334 v 2.24896 2.24896 h -6.746875 -6.746871 z"
         id="path68" /><path
         style="fill:#6ccdf3"
         d="m -284.40801,126.22767 c -8.29166,-1.31957 -15.54445,-5.17753 -21.72177,-11.55441 -6.97226,-7.19751 -10.81809,-17.485673 -10.34408,-27.671927 0.62947,-13.52712 7.78666,-25.015191 19.86727,-31.889169 10.9142,-6.210275 25.54039,-6.171406 36.54072,0.09711 12.44757,7.093222 19.69509,19.287185 19.72477,33.186939 0.0146,6.844811 -1.6139,13.215007 -4.79801,18.768137 -5.91475,10.3154 -15.78109,17.19402 -27.35476,19.07121 -2.87975,0.46708 -8.95491,0.46306 -11.91414,-0.008 z m 10.9802,-3.60017 c 2.77441,-0.38564 4.77739,-0.90706 7.54063,-1.96302 9.61846,-3.67563 17.83122,-12.67378 20.52308,-22.485691 0.77368,-2.820076 1.30504,-6.119869 1.29887,-8.066093 l -0.005,-1.719792 -0.49357,1.058334 c -0.27146,0.582083 -1.33413,1.990007 -2.36148,3.12872 -2.34233,2.596249 -2.58232,3.254187 -2.03998,5.592718 0.64346,2.774544 0.59862,2.967714 -0.84803,3.652984 -1.24009,0.58742 -1.25783,0.61361 -1.33645,1.97324 -0.0653,1.12989 -0.20822,1.47902 -0.79375,1.93956 -0.39274,0.3089 -1.08183,1.29501 -1.53131,2.19137 -0.919,1.83266 -2.36867,2.9453 -4.20985,3.2311 l -1.05833,0.16427 -0.64316,-2.33802 c -0.35374,-1.28591 -1.11285,-3.22528 -1.68692,-4.30971 -1.01846,-1.92391 -1.0385,-2.01366 -0.82716,-3.70417 0.41245,-3.29903 0.27576,-4.469226 -0.77325,-6.619806 -0.53037,-1.087301 -0.9643,-2.13501 -0.9643,-2.328243 0,-0.915055 -0.83324,-1.903145 -1.86576,-2.212495 -0.8921,-0.26728 -1.39283,-0.243901 -3.02688,0.141328 -1.8432,0.434535 -2.01323,0.43535 -2.90135,0.01391 -2.0391,-0.967613 -3.61072,-3.766941 -3.78978,-6.750232 -0.14951,-2.490859 0.19698,-3.248632 2.83579,-6.201941 1.0402,-1.164167 1.95544,-2.371734 2.03386,-2.683483 0.0784,-0.311749 -0.0457,-0.930914 -0.27581,-1.375923 -0.50646,-0.97938 -0.52933,-2.386868 -0.0491,-3.019603 0.19388,-0.255433 0.8151,-0.624575 1.38048,-0.820316 0.88157,-0.305208 1.05,-0.491434 1.18267,-1.307648 0.17814,-1.095904 0.65549,-1.773236 1.24971,-1.773236 0.74545,0 2.71546,-1.105176 3.14874,-1.766441 0.3902,-0.595518 0.3891,-0.721531 -0.0137,-1.566235 -0.74558,-1.563492 -0.53269,-2.919755 0.66518,-4.237609 l 0.50795,-0.558827 -2.23967,-0.962151 c -2.90902,-1.249705 -6.57278,-2.24558 -6.71306,-1.824733 -0.0563,0.169013 -0.36231,0.691835 -0.67993,1.161826 -0.46562,0.688994 -1.1669,1.088667 -3.6202,2.063203 -1.67349,0.664771 -3.41827,1.476566 -3.8773,1.803988 -1.00995,0.720391 -1.94682,0.759426 -2.7435,0.114308 -0.65286,-0.528649 -0.73809,-1.238704 -0.40711,-3.391506 0.18046,-1.173754 0.13685,-1.43105 -0.31995,-1.887857 -0.51521,-0.515208 -0.57877,-0.517565 -2.45715,-0.09114 -1.06053,0.240763 -1.97461,0.576842 -2.03128,0.746842 -0.1034,0.310209 0.2662,0.73716 1.63357,1.887057 l 0.7359,0.618853 -0.86484,0.892285 c -1.06113,1.094805 -2.47016,1.793784 -3.16893,1.572006 -0.63342,-0.201042 -0.7188,-1.489769 -0.13101,-1.97759 0.62091,-0.515305 0.033,-1.327531 -0.96092,-1.327531 -0.7692,0 -1.73603,0.778298 -3.07884,2.478465 -0.18817,0.238242 -0.72211,0.432613 -1.19063,0.433427 -2.26149,0.0039 -4.15676,1.203858 -4.15676,2.631724 0,2.494062 3.60854,2.499973 4.89718,0.008 0.49986,-0.966613 1.22442,-1.185424 2.22021,-0.67048 0.43661,0.225779 1.10656,0.410507 1.48879,0.410507 0.9126,0 2.24174,1.325231 2.24174,2.235155 0,0.797611 -0.47887,1.041307 -2.62242,1.33455 -1.53155,0.209519 -1.6317,0.284832 -3.81469,2.868678 -0.70275,0.831798 -1.8503,1.839363 -2.55009,2.239034 -0.6998,0.399671 -1.70964,1.259894 -2.24409,1.911608 -0.53446,0.651714 -1.58014,1.601653 -2.32373,2.110976 -1.05623,0.723458 -1.41609,1.157566 -1.64498,1.984375 -0.37077,1.339289 -1.1198,1.504416 -2.49649,0.550365 -0.54179,-0.375461 -1.27633,-0.680042 -1.63231,-0.676846 -1.031,0.0093 -2.72185,0.901229 -3.53078,1.862588 -0.63216,0.751271 -0.72559,1.057497 -0.61689,2.02188 0.22794,2.022286 1.19108,2.473672 2.65315,1.243425 l 0.81661,-0.68713 0.21827,0.59004 c 0.12004,0.324522 0.18648,0.897035 0.14762,1.272252 -0.0622,0.600528 0.0485,0.702263 0.92447,0.849665 1.33252,0.224229 1.41873,0.362949 0.86483,1.39148 -0.38312,0.711418 -0.41486,0.99084 -0.1655,1.45679 0.32687,0.610762 1.44618,0.795687 1.7584,0.290511 0.0972,-0.157312 0.45962,-0.21503 0.80533,-0.128262 0.64268,0.161302 1.69496,-0.585601 1.69496,-1.203073 0,-0.197167 0.59168,-0.261008 1.79098,-0.193242 1.87055,0.105696 2.43991,0.365867 5.44882,2.489842 0.92691,0.654305 1.5713,0.908257 2.30467,0.908257 1.15791,0 1.34157,0.156565 2.31787,1.975962 0.84853,1.581298 1.86412,2.312193 3.82147,2.750229 1.727,0.386486 2.83702,1.291246 2.83702,2.312409 0,0.392626 -0.31599,1.359727 -0.7022,2.149113 -0.38621,0.789386 -0.74999,2.051416 -0.80839,2.804506 -0.17031,2.19585 -0.27079,2.42269 -1.33918,3.02316 -1.38015,0.77569 -1.81392,1.33418 -2.00339,2.57942 -0.35155,2.31048 -0.99798,3.85291 -2.16582,5.16784 -0.64638,0.72779 -1.25173,1.62806 -1.34523,2.0006 -0.30088,1.19879 0.63697,3.94013 1.79998,5.26138 l 1.05295,1.19622 h -0.82677 c -1.10816,0 -2.66374,-0.8262 -3.63208,-1.92908 -0.43554,-0.49606 -1.47669,-2.24069 -2.31366,-3.87696 l -1.52177,-2.97503 -0.35782,-3.91537 c -0.19679,-2.15346 -0.53127,-4.33052 -0.74327,-4.83791 -0.25356,-0.60685 -0.88867,-1.25655 -1.85598,-1.89861 -1.85725,-1.232783 -2.98129,-2.510034 -3.81875,-4.3393 -0.95077,-2.07676 -1.03806,-3.432173 -0.3329,-5.169564 0.3213,-0.79164 0.54479,-1.717567 0.49663,-2.057617 -0.0765,-0.540284 -0.25443,-0.628734 -1.41047,-0.701208 -1.50907,-0.09461 -2.39007,-0.736936 -2.65306,-1.934338 -0.17702,-0.80595 -1.01291,-1.554602 -1.73576,-1.554602 -0.23904,0 -0.73655,-0.237504 -1.10558,-0.527786 -0.49021,-0.385599 -0.89186,-0.483608 -1.49089,-0.363802 l -0.81992,0.163984 8.4e-4,3.472656 c 10e-4,5.750046 1.13344,10.725306 3.56755,15.679247 3.1576,6.4264 8.66241,12.06712 14.87804,15.24536 6.93715,3.54719 13.40658,4.65984 20.97648,3.60765 z m 29.36615,-36.426717 c 0.002,-1.300876 -0.0331,-1.379276 -0.50917,-1.124479 -0.86242,0.461552 -2.00099,0.319452 -2.57536,-0.321421 -0.29344,-0.327421 -0.85725,-1.369218 -1.2529,-2.315104 -0.79159,-1.892462 -1.37582,-2.666169 -2.87706,-3.81015 -1.04079,-0.793104 -1.63534,-0.768567 -0.926,0.03822 0.62853,0.714871 1.4988,2.562638 2.64603,5.618073 0.57494,1.531239 1.16786,2.932027 1.31762,3.112862 0.18171,0.21943 0.9212,0.307435 2.22326,0.264584 l 1.95098,-0.06421 z M -257.65033,75.38912 c 0.60121,-0.08516 1.52436,-0.01251 2.05144,0.16144 1.97648,0.652298 3.7993,-0.601121 2.67726,-1.840956 -0.3768,-0.416361 -0.81482,-0.530242 -2.03949,-0.530242 -1.91118,0 -2.81707,-0.44096 -3.72528,-1.813365 -0.94486,-1.427772 -2.30241,-2.419968 -3.31109,-2.419968 -0.96957,0 -5.14903,2.994537 -5.30142,3.798416 -0.1703,0.898329 0.32401,1.016763 2.27662,0.545474 2.1694,-0.523612 2.62782,-0.416608 3.01868,0.704614 0.35911,1.030152 1.69563,1.904148 2.59872,1.699394 0.3638,-0.08248 1.15336,-0.219647 1.75456,-0.304807 z m 70.3444,27.50288 c -1.74209,-0.24442 -2.8284,-0.66878 -3.72323,-1.45445 -1.49688,-1.31427 -2.02628,-2.635862 -2.17272,-5.423968 -0.12582,-2.395372 -0.11795,-2.435588 0.50281,-2.567467 0.34685,-0.07369 1.04736,-0.0934 1.55668,-0.0438 0.50932,0.0496 1.17697,0.10363 1.48366,0.120071 0.48385,0.02594 0.58024,0.246258 0.72856,1.665283 0.19263,1.843047 0.68058,2.768332 1.6553,3.13892 1.57462,0.598671 3.02734,0.02449 3.52102,-1.391666 0.39039,-1.119888 0.35732,-1.981635 -0.14066,-3.66535 -0.38213,-1.29201 -0.78383,-1.790224 -3.9791,-4.935211 -2.95242,-2.905966 -3.69786,-3.801736 -4.4036,-5.291667 -0.78401,-1.65517 -0.84869,-1.997666 -0.83834,-4.439374 0.009,-2.212416 0.11143,-2.851198 0.62299,-3.899496 1.12947,-2.314529 3.46623,-3.650141 6.35913,-3.634662 4.45891,0.02386 6.81741,2.272396 7.09781,6.766899 l 0.13865,2.222467 h -2.11978 -2.11979 l -0.17419,-1.539658 c -0.20955,-1.852128 -0.65348,-2.553953 -1.86928,-2.955205 -0.74748,-0.246691 -1.07994,-0.223827 -1.8146,0.124794 -1.06505,0.505399 -1.5029,1.340918 -1.49936,2.861164 0.005,1.990214 0.9876,3.492658 4.57364,6.990639 3.74022,3.648368 4.58847,5.004431 4.96109,7.931089 0.25795,2.025972 -0.0605,4.703255 -0.71378,6.001127 -0.6871,1.365041 -1.96385,2.511641 -3.24729,2.916261 -1.42124,0.44807 -3.26827,0.66002 -4.38562,0.50326 z m 33.21941,-0.11855 c -2.78197,-0.45549 -4.66589,-2.13326 -5.30358,-4.723254 -0.19697,-0.799981 -0.26714,-4.663016 -0.21387,-11.773958 0.0769,-10.261042 0.0967,-10.615563 0.65037,-11.641667 1.17621,-2.17976 2.88847,-3.217885 5.74793,-3.484905 2.44366,-0.228193 4.4818,0.432274 5.90511,1.913574 1.43339,1.491787 1.93109,3.139338 1.93109,6.392553 v 2.47622 l -2.18282,-0.07685 -2.18281,-0.07685 -0.13229,-2.513542 c -0.0728,-1.382448 -0.23612,-2.674518 -0.36303,-2.871267 -0.1269,-0.196749 -0.64313,-0.530035 -1.14717,-0.740635 -1.16563,-0.487033 -2.46959,-0.110704 -3.16448,0.91329 -0.44736,0.659213 -0.4847,1.437836 -0.4847,10.106946 0,5.165989 0.0907,9.716835 0.20165,10.11299 0.32346,1.155467 1.20215,1.79326 2.47056,1.79326 0.92273,0 1.23645,-0.141709 1.80219,-0.81405 0.64543,-0.767046 0.68498,-0.980928 0.68498,-3.704167 V 91.17103 h 2.2796 2.27961 l -0.10592,3.505729 c -0.0993,3.286423 -0.15501,3.595559 -0.89054,4.941717 -0.92961,1.701334 -2.51511,2.827974 -4.32472,3.073114 -0.67232,0.0911 -1.401,0.19983 -1.61928,0.24169 -0.21828,0.0418 -1.04533,-0.0301 -1.83788,-0.15983 z m 17.27466,0.0416 c -2.51908,-0.52877 -4.41847,-2.1757 -5.15576,-4.470481 -0.43726,-1.360922 -0.63302,-18.429921 -0.24039,-20.960436 0.55331,-3.566191 2.17281,-5.433985 5.26892,-6.076736 3.76436,-0.781478 7.06607,0.496902 8.59333,3.327224 0.55295,1.02473 0.57379,1.390157 0.65656,11.509375 0.0936,11.450761 -0.001,12.485451 -1.30906,14.290994 -1.38247,1.90845 -4.92281,2.98686 -7.8136,2.38006 z m 3.79429,-5.140361 c 0.31832,-0.370074 0.65422,-1.181108 0.74645,-1.802298 0.0922,-0.62119 0.12962,-5.064012 0.0831,-9.872938 -0.0944,-9.763217 -0.10775,-9.835194 -1.92886,-10.436217 -0.79205,-0.261398 -1.09023,-0.234354 -1.92761,0.174825 -1.62575,0.794418 -1.68806,1.256551 -1.59829,11.853592 0.0835,9.85206 0.10889,10.048048 1.38851,10.702457 0.90008,0.460307 2.58538,0.137785 3.2367,-0.619421 z m -101.86926,4.961671 c -0.097,-0.097 -0.17639,-7.181235 -0.17639,-15.742711 v -15.56632 h 6.48229 6.48229 v 2.109775 2.109776 l -4.0349,0.07304 -4.03489,0.07304 -0.0727,4.292801 -0.0727,4.292802 0.62963,0.158025 c 0.34629,0.08691 1.77034,0.119685 3.16456,0.07282 l 2.53494,-0.0852 0.0831,2.175824 0.0831,2.175824 -3.175,0.07313 -3.175,0.07314 -0.0705,6.945313 -0.0705,6.945321 h -2.20047 c -1.21025,0 -2.27984,-0.0794 -2.37685,-0.17639 z m 15.43402,-15.566322 V 71.327279 h 2.38125 2.38125 V 87.069988 102.8127 h -2.38125 -2.38125 z m 8.73125,-0.02853 V 71.27022 l 4.96094,0.105332 c 4.29975,0.09129 5.12079,0.177888 6.1603,0.649717 2.59568,1.17816 3.56634,3.484129 3.37913,8.027698 -0.13672,3.318474 -0.74892,4.931285 -2.21601,5.837998 -0.499,0.308397 -0.90457,0.640309 -0.90126,0.737581 0.003,0.09727 0.39025,0.361049 0.85989,0.586172 0.56579,0.271212 1.0758,0.851468 1.5116,1.719792 0.62214,1.23959 0.66636,1.625347 0.81755,7.131311 0.0879,3.201459 0.25116,6.029189 0.36278,6.283859 0.18496,0.42198 -0.0112,0.46302 -2.21316,0.46302 -2.35008,0 -2.42316,-0.0186 -2.67414,-0.67869 -0.14192,-0.37327 -0.25803,-2.877408 -0.25803,-5.564744 0,-6.624237 -0.25743,-7.204489 -3.30472,-7.449097 l -1.72237,-0.138255 v 6.915391 6.915395 h -2.38125 -2.38125 z m 8.64946,-2.890648 c 0.83225,-0.545309 1.21738,-2.263361 1.08345,-4.833291 -0.10061,-1.930596 -0.19759,-2.279355 -0.80185,-2.883618 -0.58723,-0.587228 -0.93142,-0.691306 -2.36183,-0.714199 l -1.67443,-0.0268 -0.0731,4.222713 c -0.0402,2.322492 -0.008,4.392425 0.0716,4.599852 0.18354,0.478282 2.86741,0.21773 3.75624,-0.364659 z m 30.18055,5.10199 -0.0686,-13.559896 -2.57969,-0.07573 -2.57968,-0.07573 v -2.107086 -2.107085 h 7.67291 7.67292 v 2.107085 2.107086 l -2.57969,0.07573 -2.57969,0.07573 -0.0685,13.559896 -0.0685,13.5599 h -2.37645 -2.37644 z m 47.95333,-2.178586 V 71.277711 l 4.96093,0.09613 c 5.61902,0.108879 6.62757,0.374172 8.19073,2.154539 1.55885,1.775453 1.665,2.630762 1.665,13.415291 0,10.454774 -0.0793,11.191544 -1.42355,13.222809 -0.44248,0.66863 -1.18145,1.25914 -2.20098,1.75879 -1.48598,0.72825 -1.68857,0.75527 -6.36349,0.84882 l -4.82864,0.0966 z m 8.7157,10.85173 c 0.42059,-0.217498 0.88115,-0.759536 1.04519,-1.230107 0.32183,-0.923185 0.37737,-18.132488 0.0622,-19.25929 -0.3172,-1.133924 -1.46184,-1.739631 -3.29148,-1.741749 l -1.63678,-0.0019 -0.069,11.310938 -0.069,11.310938 h 1.60348 c 0.8931,0 1.93661,-0.172265 2.35541,-0.388836 z m 9.71693,4.710366 c -0.097,-0.097 -0.17638,-7.181235 -0.17638,-15.742711 v -15.56632 h 6.746871 6.746875 l 4.28e-4,2.182812 4.28e-4,2.182813 -3.760646,-0.08076 c -5.491656,-0.117935 -4.999146,-0.544531 -4.912166,4.25471 l 0.073,4.028135 3.373435,0.07405 3.373437,0.07405 v 2.233149 2.233148 l -3.373437,0.07405 -3.373435,0.07405 v 4.7625 4.7625 l 4.299477,0.0727 4.299479,0.0727 v 2.242404 2.24241 h -6.570486 c -3.61377,0 -6.64986,-0.0794 -6.74688,-0.17639 z"
         id="path67" /><path
         style="fill:#6ab1f2"
         d="m -284.40801,126.22767 c -2.6471,-0.42127 -4.82356,-0.98843 -7.17056,-1.86855 -2.13515,-0.80068 -6.98465,-3.28542 -6.98465,-3.57872 0,-0.111 -0.20836,-0.25627 -0.46302,-0.32282 -0.31643,-0.0827 -0.25361,-0.132 0.19843,-0.15574 0.52844,-0.0278 0.58165,-0.0863 0.26459,-0.29123 -0.35278,-0.22798 -0.35278,-0.25986 0,-0.2869 0.21828,-0.0167 0.0992,-0.12575 -0.26459,-0.24226 l -0.66145,-0.21184 0.66145,-0.0304 c 0.52788,-0.0243 0.58131,-0.0822 0.26459,-0.28691 -0.21828,-0.14106 -0.27781,-0.26667 -0.13229,-0.27913 0.14552,-0.0125 0.0265,-0.12497 -0.26459,-0.25004 -0.4858,-0.20875 -0.47496,-0.22924 0.13229,-0.25003 0.52684,-0.018 0.58069,-0.0748 0.26459,-0.27913 -0.35278,-0.22799 -0.35278,-0.25986 0,-0.28691 0.21828,-0.0167 0.0992,-0.12575 -0.26459,-0.24226 l -0.66145,-0.21184 0.66145,-0.0304 c 0.52788,-0.0243 0.58131,-0.0822 0.26459,-0.28691 -0.21828,-0.14106 -0.31797,-0.2583 -0.22153,-0.26053 0.0964,-0.002 0.81081,0.41939 1.5875,0.93693 0.77668,0.51753 2.48372,1.45574 3.7934,2.0849 10.13649,4.86945 22.54165,4.45174 32.01459,-1.07799 7.72064,-4.50686 13.79739,-12.21984 16.02516,-20.340131 0.77368,-2.820076 1.30504,-6.119869 1.29887,-8.066093 l -0.005,-1.719792 -0.49357,1.058334 c -0.27146,0.582083 -1.33413,1.990007 -2.36148,3.12872 -2.34233,2.596249 -2.58232,3.254187 -2.03998,5.592718 0.64346,2.774544 0.59862,2.967714 -0.84803,3.652984 -1.24009,0.58742 -1.25783,0.61361 -1.33645,1.97324 -0.0653,1.12989 -0.20822,1.47902 -0.79375,1.93956 -0.39274,0.3089 -1.08183,1.29501 -1.53131,2.19137 -0.919,1.83266 -2.36867,2.9453 -4.20985,3.2311 l -1.05833,0.16427 -0.64316,-2.33802 c -0.35374,-1.28591 -1.11285,-3.22528 -1.68692,-4.30971 -1.01846,-1.92391 -1.0385,-2.01366 -0.82716,-3.70417 0.41245,-3.29903 0.27576,-4.469226 -0.77325,-6.619806 -0.53037,-1.087301 -0.9643,-2.13501 -0.9643,-2.328243 0,-0.915055 -0.83324,-1.903145 -1.86576,-2.212495 -0.8921,-0.26728 -1.39283,-0.243901 -3.02688,0.141328 -1.8432,0.434535 -2.01323,0.43535 -2.90135,0.01391 -2.0391,-0.967613 -3.61072,-3.766941 -3.78978,-6.750232 -0.14951,-2.490859 0.19698,-3.248632 2.83579,-6.201941 1.0402,-1.164167 1.95544,-2.371734 2.03386,-2.683483 0.0784,-0.311749 -0.0457,-0.930914 -0.27581,-1.375923 -0.50646,-0.97938 -0.52933,-2.386868 -0.0491,-3.019603 0.19388,-0.255433 0.8151,-0.624575 1.38048,-0.820316 0.88157,-0.305208 1.05,-0.491434 1.18267,-1.307648 0.17814,-1.095904 0.65549,-1.773236 1.24971,-1.773236 0.74545,0 2.71546,-1.105176 3.14874,-1.766441 0.3902,-0.595518 0.3891,-0.721531 -0.0137,-1.566235 -0.74558,-1.563492 -0.53269,-2.919755 0.66518,-4.237609 l 0.50795,-0.558827 -2.23967,-0.962151 c -2.90902,-1.249705 -6.57278,-2.24558 -6.71306,-1.824733 -0.0563,0.169013 -0.36231,0.691835 -0.67993,1.161826 -0.46562,0.688994 -1.1669,1.088667 -3.6202,2.063203 -1.67349,0.664771 -3.41827,1.476566 -3.8773,1.803988 -1.00995,0.720391 -1.94682,0.759426 -2.7435,0.114308 -0.65286,-0.528649 -0.73809,-1.238704 -0.40711,-3.391506 0.18046,-1.173754 0.13685,-1.43105 -0.31995,-1.887857 -0.51521,-0.515208 -0.57877,-0.517565 -2.45715,-0.09114 -1.06053,0.240763 -1.97461,0.576842 -2.03128,0.746842 -0.1034,0.310209 0.2662,0.73716 1.63357,1.887057 l 0.7359,0.618853 -0.86484,0.892285 c -1.06113,1.094805 -2.47016,1.793784 -3.16893,1.572006 -0.63342,-0.201042 -0.7188,-1.489769 -0.13101,-1.97759 0.60637,-0.503243 0.0348,-1.327531 -0.92058,-1.327531 -0.84812,0 -2.50885,1.268583 -2.78028,2.12377 -0.10223,0.322114 -0.4883,0.554682 -1.07099,0.645163 -0.50112,0.07782 -1.31587,0.204163 -1.81056,0.280772 -0.49469,0.07661 -1.33641,0.435829 -1.87049,0.798267 -0.53408,0.362439 -0.90179,0.546895 -0.81712,0.409903 0.0847,-0.136992 -0.0559,-0.303808 -0.31232,-0.370701 -0.32252,-0.08413 -0.26234,-0.132335 0.19519,-0.156367 0.52844,-0.02776 0.58165,-0.08632 0.26459,-0.291224 -0.35278,-0.227982 -0.35278,-0.259861 0,-0.286905 0.21828,-0.01673 0.0992,-0.125752 -0.26459,-0.242262 l -0.66145,-0.211836 0.66145,-0.03042 c 0.52788,-0.02428 0.58131,-0.08222 0.26459,-0.286905 -0.21828,-0.141065 -0.27781,-0.266672 -0.13229,-0.279128 0.14552,-0.01246 0.0265,-0.124974 -0.26459,-0.250039 -0.4858,-0.208757 -0.47496,-0.229247 0.13229,-0.250039 0.52684,-0.01804 0.58069,-0.07485 0.26459,-0.279128 -0.35278,-0.227982 -0.35278,-0.259861 0,-0.286905 0.21828,-0.01673 0.0992,-0.125752 -0.26459,-0.242261 l -0.66145,-0.211836 0.66145,-0.03043 c 0.52788,-0.02428 0.58131,-0.08222 0.26459,-0.286905 -0.21828,-0.141064 -0.27781,-0.266672 -0.13229,-0.279128 0.14552,-0.01246 0.0265,-0.124974 -0.26459,-0.250039 -0.50492,-0.216971 -0.50189,-0.228243 0.0661,-0.245987 0.32742,-0.01023 0.56555,-0.149245 0.52917,-0.308926 -0.0854,-0.374813 4.08753,-2.646438 6.7985,-3.700909 9.75577,-3.79466 22.27703,-2.83061 31.50041,2.425314 12.44757,7.093222 19.69509,19.287185 19.72477,33.186939 0.0146,6.844811 -1.6139,13.215012 -4.79801,18.768142 -5.91475,10.3154 -15.78109,17.19402 -27.35476,19.07121 -2.87975,0.46708 -8.95491,0.46306 -11.91414,-0.008 z m 40.34635,-40.026887 c 0.002,-1.300876 -0.0331,-1.379276 -0.50917,-1.124479 -0.86242,0.461552 -2.00099,0.319452 -2.57536,-0.321421 -0.29344,-0.327421 -0.85725,-1.369218 -1.2529,-2.315104 -0.79159,-1.892462 -1.37582,-2.666169 -2.87706,-3.81015 -1.04079,-0.793104 -1.63534,-0.768567 -0.926,0.03822 0.62853,0.714871 1.4988,2.562638 2.64603,5.618073 0.57494,1.531239 1.16786,2.932027 1.31762,3.112862 0.18171,0.21943 0.9212,0.307435 2.22326,0.264584 l 1.95098,-0.06421 z M -257.65033,75.38912 c 0.60121,-0.08516 1.52436,-0.01251 2.05144,0.16144 1.97648,0.652298 3.7993,-0.601121 2.67726,-1.840956 -0.3768,-0.416361 -0.81482,-0.530242 -2.03949,-0.530242 -1.91118,0 -2.81707,-0.44096 -3.72528,-1.813365 -0.94486,-1.427772 -2.30241,-2.419968 -3.31109,-2.419968 -0.96957,0 -5.14903,2.994537 -5.30142,3.798416 -0.1703,0.898329 0.32401,1.016763 2.27662,0.545474 2.1694,-0.523612 2.62782,-0.416608 3.01868,0.704614 0.35911,1.030152 1.69563,1.904148 2.59872,1.699394 0.3638,-0.08248 1.15336,-0.219647 1.75456,-0.304807 z m -33.80326,44.61991 c -1.39397,-0.7366 -2.19304,-1.81582 -3.97198,-5.36459 l -1.5846,-3.16108 -0.26212,-3.34314 c -0.26024,-3.31919 -0.87491,-6.12127 -1.34277,-6.12127 -0.13418,0 -0.17039,-0.11907 -0.0804,-0.26459 0.0899,-0.14552 -0.0519,-0.27645 -0.31512,-0.29095 -0.33906,-0.0187 -0.28575,-0.0881 0.18282,-0.23821 0.36381,-0.11651 0.48287,-0.22553 0.26459,-0.24226 -0.35278,-0.0271 -0.35278,-0.0589 0,-0.28691 0.31672,-0.20468 0.26329,-0.26263 -0.26459,-0.28691 l -0.66145,-0.0304 0.66145,-0.21184 c 0.36381,-0.11651 0.50561,-0.223701 0.31512,-0.238206 -0.19049,-0.01451 -0.27276,-0.145437 -0.18282,-0.290958 0.0899,-0.14552 -0.0519,-0.276451 -0.31512,-0.290957 -0.33906,-0.01868 -0.28575,-0.08814 0.18282,-0.238209 0.36381,-0.11651 0.48287,-0.225528 0.26459,-0.242261 -0.35278,-0.02705 -0.35278,-0.05892 0,-0.286906 0.31672,-0.204682 0.26329,-0.262625 -0.26459,-0.286905 l -0.66145,-0.03043 0.66145,-0.211836 c 0.36381,-0.116509 0.50561,-0.223704 0.31512,-0.238209 -0.19049,-0.01451 -0.27276,-0.145436 -0.18282,-0.290957 0.0899,-0.145521 -0.0519,-0.276452 -0.31512,-0.290957 -0.33906,-0.01868 -0.28575,-0.08815 0.18282,-0.23821 0.36381,-0.11651 0.48287,-0.225527 0.26459,-0.242261 -0.35278,-0.02705 -0.35278,-0.05892 0,-0.286906 0.31672,-0.204682 0.26329,-0.262625 -0.26459,-0.286905 l -0.66145,-0.03043 0.66145,-0.211836 c 0.36381,-0.11651 0.50561,-0.223704 0.31512,-0.23821 -0.19049,-0.01451 -0.27276,-0.145436 -0.18282,-0.290957 0.0899,-0.145521 -0.0519,-0.276452 -0.31512,-0.290957 -0.33906,-0.01868 -0.28575,-0.08814 0.18282,-0.23821 0.36381,-0.116509 0.48287,-0.225527 0.26459,-0.242261 -0.35278,-0.02704 -0.35278,-0.05892 0,-0.286905 0.31672,-0.204682 0.26329,-0.262625 -0.26459,-0.286906 l -0.66145,-0.03042 0.66145,-0.211836 c 0.36381,-0.11651 0.50561,-0.223704 0.31512,-0.23821 -0.19049,-0.0145 -0.27276,-0.145436 -0.18282,-0.290957 0.0899,-0.145521 -0.0519,-0.276451 -0.31512,-0.290957 -0.33906,-0.01868 -0.28575,-0.08815 0.18282,-0.238209 0.36381,-0.11651 0.48287,-0.225528 0.26459,-0.242262 -0.35278,-0.02704 -0.35278,-0.05892 0,-0.286905 0.31672,-0.204682 0.26329,-0.262625 -0.26459,-0.286906 l -0.66145,-0.03043 0.66145,-0.211836 c 0.36381,-0.11651 0.50561,-0.223704 0.31512,-0.238209 -0.19049,-0.01451 -0.27276,-0.145437 -0.18282,-0.290957 0.0899,-0.145521 -0.0519,-0.276452 -0.31512,-0.290958 -0.33906,-0.01868 -0.28575,-0.08814 0.18282,-0.238209 0.36381,-0.11651 0.48287,-0.225528 0.26459,-0.242261 -0.35278,-0.02705 -0.35278,-0.05892 0,-0.286906 0.31672,-0.204682 0.26329,-0.262625 -0.26459,-0.286905 l -0.66145,-0.03043 0.66145,-0.211836 c 0.36381,-0.116509 0.50561,-0.223704 0.31512,-0.238209 -0.19049,-0.01451 -0.27276,-0.145436 -0.18282,-0.290957 0.0899,-0.145521 -0.0519,-0.276452 -0.31512,-0.290957 -0.33906,-0.01868 -0.28575,-0.08814 0.18282,-0.23821 0.36381,-0.11651 0.48287,-0.225527 0.26459,-0.242261 -0.35278,-0.02705 -0.35278,-0.05892 0,-0.286906 0.31672,-0.204682 0.26329,-0.262625 -0.26459,-0.286905 l -0.66145,-0.03043 0.66145,-0.211836 c 0.36381,-0.11651 0.50561,-0.223704 0.31512,-0.23821 -0.19049,-0.0145 -0.27276,-0.145436 -0.18282,-0.290957 0.0899,-0.145521 -0.0519,-0.276451 -0.31512,-0.290957 -0.33002,-0.01819 -0.27326,-0.08686 0.18282,-0.221172 0.85804,-0.25269 1.71501,0.07208 3.03422,1.149905 1.48799,1.215715 2.6047,1.743474 3.68909,1.743474 1.06512,0 1.26195,0.174516 2.22862,1.975962 0.84853,1.581298 1.86412,2.312193 3.82147,2.750229 1.727,0.386486 2.83702,1.291246 2.83702,2.312409 0,0.392626 -0.31599,1.359727 -0.7022,2.149113 -0.38621,0.789386 -0.74999,2.051409 -0.80839,2.804499 -0.17031,2.19585 -0.27079,2.42269 -1.33918,3.02316 -1.38015,0.77569 -1.81392,1.33418 -2.00339,2.57942 -0.33781,2.22022 -1.01247,3.89698 -2.00616,4.98606 -1.74257,1.90985 -1.89885,2.53526 -1.2117,4.84915 0.23244,0.78268 0.84203,1.8394 1.4777,2.56156 l 1.08204,1.22927 -0.88238,-0.0117 c -0.48531,-0.006 -1.31445,-0.24001 -1.84254,-0.51906 z m 104.14766,-17.11389 c -3.97771,-0.54231 -5.95313,-3.043901 -5.95313,-7.538799 V 93.55228 h 2.11667 2.11667 l 0.001,0.992187 c 0.002,1.394954 0.44173,2.816749 1.03781,3.356197 0.75289,0.681361 2.44677,0.833814 3.27014,0.29432 1.2469,-0.817002 1.53191,-2.528359 0.82019,-4.92496 -0.38192,-1.286067 -0.7942,-1.800183 -3.93378,-4.905455 -2.84381,-2.812742 -3.67639,-3.81262 -4.40201,-5.286555 -0.8363,-1.69878 -0.89487,-1.991241 -0.89487,-4.46913 0,-2.448209 0.0608,-2.762232 0.79375,-4.097688 0.4639,-0.845257 1.24042,-1.758696 1.86858,-2.198043 1.45622,-1.018502 4.0074,-1.456615 6.15565,-1.057105 3.36268,0.625356 5.03159,2.707871 5.27317,6.580014 l 0.13865,2.222467 h -2.11753 -2.11753 l -0.1743,-1.483031 c -0.22477,-1.91241 -0.52753,-2.443873 -1.66234,-2.918024 -1.93893,-0.810139 -3.53071,0.484201 -3.5253,2.866562 0.005,2.018797 0.97229,3.503308 4.57364,7.016227 3.74022,3.648368 4.58847,5.004431 4.96109,7.931089 0.25795,2.025972 -0.0605,4.703255 -0.71378,6.001127 -0.6871,1.365041 -1.96385,2.511641 -3.24729,2.916261 -1.41559,0.44629 -3.2624,0.65954 -4.38562,0.5064 z m 33.21941,-0.12169 c -2.78197,-0.45549 -4.66589,-2.13326 -5.30358,-4.723254 -0.19697,-0.799981 -0.26714,-4.663016 -0.21387,-11.773958 0.0769,-10.261042 0.0967,-10.615563 0.65037,-11.641667 1.17621,-2.17976 2.88847,-3.217885 5.74793,-3.484905 2.44366,-0.228193 4.4818,0.432274 5.90511,1.913574 1.43339,1.491787 1.93109,3.139338 1.93109,6.392553 v 2.47622 l -2.18282,-0.07685 -2.18281,-0.07685 -0.13229,-2.513542 c -0.0728,-1.382448 -0.23612,-2.674518 -0.36303,-2.871267 -0.1269,-0.196749 -0.64313,-0.530035 -1.14717,-0.740635 -1.16563,-0.487033 -2.46959,-0.110704 -3.16448,0.91329 -0.44736,0.659213 -0.4847,1.437836 -0.4847,10.106946 0,5.165989 0.0907,9.716835 0.20165,10.11299 0.32346,1.155467 1.20215,1.79326 2.47056,1.79326 0.92273,0 1.23645,-0.141709 1.80219,-0.81405 0.64543,-0.767046 0.68498,-0.980928 0.68498,-3.704167 V 91.17103 h 2.2796 2.27961 l -0.10592,3.505729 c -0.0993,3.286423 -0.15501,3.595559 -0.89054,4.941717 -0.92961,1.701334 -2.51511,2.827974 -4.32472,3.073114 -0.67232,0.0911 -1.401,0.19983 -1.61928,0.24169 -0.21828,0.0418 -1.04533,-0.0301 -1.83788,-0.15983 z m 17.27466,0.0416 c -2.51908,-0.52877 -4.41847,-2.1757 -5.15576,-4.470481 -0.43726,-1.360922 -0.63302,-18.429921 -0.24039,-20.960436 0.55331,-3.566191 2.17281,-5.433985 5.26892,-6.076736 3.76436,-0.781478 7.06607,0.496902 8.59333,3.327224 0.55295,1.02473 0.57379,1.390157 0.65656,11.509375 0.0936,11.450761 -0.001,12.485451 -1.30906,14.290994 -1.38247,1.90845 -4.92281,2.98686 -7.8136,2.38006 z m 3.79429,-5.140361 c 0.31832,-0.370074 0.65422,-1.181108 0.74645,-1.802298 0.0922,-0.62119 0.12962,-5.064012 0.0831,-9.872938 -0.0944,-9.763217 -0.10775,-9.835194 -1.92886,-10.436217 -0.79205,-0.261398 -1.09023,-0.234354 -1.92761,0.174825 -1.62575,0.794418 -1.68806,1.256551 -1.59829,11.853592 0.0835,9.85206 0.10889,10.048048 1.38851,10.702457 0.90008,0.460307 2.58538,0.137785 3.2367,-0.619421 z m -65.33472,4.929321 c -1.2733,-0.0421 -2.33164,-0.10158 -2.35186,-0.13229 -0.0202,-0.0307 -0.10951,-2.702439 -0.19843,-5.937162 l -0.16168,-5.881313 -0.69844,-0.698085 c -0.45262,-0.452396 -1.24413,-0.817324 -2.24895,-1.036887 -1.09601,-0.239487 -1.31785,-0.347938 -0.75678,-0.369966 0.61845,-0.02428 0.7061,-0.0887 0.39687,-0.291696 -0.34083,-0.223745 -0.34366,-0.29478 -0.02,-0.50309 0.28537,-0.183672 0.18902,-0.270398 -0.39687,-0.357232 l -0.77373,-0.114673 0.79375,-0.04369 c 0.62039,-0.03415 0.70707,-0.100597 0.39687,-0.304226 -0.34083,-0.223746 -0.34366,-0.294781 -0.02,-0.503091 0.28537,-0.183672 0.18902,-0.270397 -0.39687,-0.357232 l -0.77373,-0.114673 0.7276,-0.03964 c 0.74743,-0.04072 0.98574,-0.429243 0.39688,-0.647031 -0.1819,-0.06727 0.22502,-0.26746 0.90428,-0.444855 1.98364,-0.518048 2.41913,-1.18678 2.54884,-3.91395 0.12915,-2.71556 -0.24756,-4.417634 -1.07586,-4.860925 -0.31973,-0.171114 -1.17889,-0.457629 -1.90924,-0.6367 -0.84538,-0.207275 -1.08756,-0.337688 -0.66646,-0.358894 0.52825,-0.0266 0.58153,-0.08496 0.26458,-0.289789 -0.26458,-0.170987 -0.28663,-0.257831 -0.0661,-0.260532 0.64185,-0.0079 0.32107,-0.499533 -0.39688,-0.608292 l -0.7276,-0.110223 0.79375,-0.04369 c 0.61658,-0.03394 0.70516,-0.100942 0.39687,-0.300174 -0.26458,-0.170987 -0.28663,-0.257831 -0.0661,-0.260532 0.67405,-0.0083 0.30419,-0.53436 -0.39688,-0.564523 l -0.7276,-0.0313 0.79375,-0.201975 c 0.43656,-0.111086 0.63642,-0.216062 0.44412,-0.233279 -0.26447,-0.02368 -0.24681,-0.134119 0.0725,-0.453422 0.54849,-0.548494 3.21112,-0.28 4.85486,0.489552 2.30813,1.080609 2.96512,2.705653 2.95709,7.314236 -0.007,3.869315 -0.34825,4.949227 -2.01054,6.357698 -0.6918,0.586172 -0.91019,0.913459 -0.66999,1.004065 0.82134,0.309812 2.08188,1.699092 2.39272,2.637087 0.20174,0.608791 0.38582,3.103807 0.46478,6.299689 0.0719,2.910417 0.2343,5.616455 0.36087,6.013425 0.12656,0.39697 0.14793,0.75415 0.0475,0.79375 -0.10045,0.0396 -1.22443,0.0376 -2.49774,-0.004 z m 26.46074,-13.35116 -0.0686,-13.559896 -2.57969,-0.07573 -2.57968,-0.07573 v -2.107086 -2.107085 h 7.67291 7.67292 v 2.107085 2.107086 l -2.57969,0.07573 -2.57969,0.07573 -0.0685,13.559896 -0.0685,13.5599 h -2.37645 -2.37644 z m 47.95333,-2.178586 V 71.277711 l 4.96093,0.09613 c 5.61902,0.108879 6.62757,0.374172 8.19073,2.154539 1.55885,1.775453 1.665,2.630762 1.665,13.415291 0,10.454774 -0.0793,11.191544 -1.42355,13.222809 -0.44248,0.66863 -1.18145,1.25914 -2.20098,1.75879 -1.48598,0.72825 -1.68857,0.75527 -6.36349,0.84882 l -4.82864,0.0966 z m 8.7157,10.85173 c 0.42059,-0.217498 0.88115,-0.759536 1.04519,-1.230107 0.32183,-0.923185 0.37737,-18.132488 0.0622,-19.25929 -0.3172,-1.133924 -1.46184,-1.739631 -3.29148,-1.741749 l -1.63678,-0.0019 -0.069,11.310938 -0.069,11.310938 h 1.60348 c 0.8931,0 1.93661,-0.172265 2.35541,-0.388836 z m 9.71693,4.710366 c -0.097,-0.097 -0.17638,-7.181235 -0.17638,-15.742711 v -15.56632 h 6.746871 6.746875 l 4.28e-4,2.182812 4.28e-4,2.182813 -3.760646,-0.08076 c -5.491656,-0.117935 -4.999146,-0.544531 -4.912166,4.25471 l 0.073,4.028135 3.373435,0.07405 3.373437,0.07405 v 2.233149 2.233148 l -3.373437,0.07405 -3.373435,0.07405 v 4.7625 4.7625 l 4.299477,0.0727 4.299479,0.0727 v 2.242404 2.24241 h -6.570486 c -3.61377,0 -6.64986,-0.0794 -6.74688,-0.17639 z M -298.73776,72.207199 c 0.10407,-0.178621 -0.0172,-0.362409 -0.28524,-0.432329 -0.32252,-0.08413 -0.26234,-0.132335 0.19519,-0.156367 0.52844,-0.02776 0.58165,-0.08633 0.26459,-0.291224 -0.35278,-0.227983 -0.35278,-0.259861 0,-0.286906 0.21828,-0.01673 0.0992,-0.125751 -0.26459,-0.242261 l -0.66145,-0.211836 0.66145,-0.03042 c 0.52788,-0.02428 0.58131,-0.08222 0.26459,-0.286906 -0.21828,-0.141064 -0.27781,-0.266671 -0.13229,-0.279128 0.14552,-0.01246 0.0265,-0.124973 -0.26459,-0.250038 -0.4858,-0.208757 -0.47496,-0.229247 0.13229,-0.250039 0.52684,-0.01804 0.58069,-0.07485 0.26459,-0.279128 -0.35278,-0.227982 -0.35278,-0.259861 0,-0.286905 0.21828,-0.01673 0.0992,-0.125752 -0.26459,-0.242262 l -0.66145,-0.211836 0.66145,-0.03043 c 0.52788,-0.02428 0.58131,-0.08222 0.26459,-0.286905 -0.21828,-0.141065 -0.27781,-0.266672 -0.13229,-0.279128 0.14552,-0.01246 0.0265,-0.124974 -0.26459,-0.250039 -0.4858,-0.208757 -0.47496,-0.229247 0.13229,-0.250039 0.52684,-0.01804 0.58069,-0.07485 0.26459,-0.279128 -0.35278,-0.227982 -0.35278,-0.259861 0,-0.286905 0.21828,-0.01673 0.0992,-0.125752 -0.26459,-0.242261 l -0.66145,-0.211836 0.66145,-0.03043 c 0.52788,-0.02428 0.58131,-0.08222 0.26459,-0.286905 -0.21828,-0.141064 -0.27781,-0.266672 -0.13229,-0.279128 0.14552,-0.01246 0.0265,-0.124974 -0.26459,-0.250039 -0.4858,-0.208757 -0.47496,-0.229246 0.13229,-0.250038 0.52684,-0.01804 0.58069,-0.07485 0.26459,-0.279128 -0.35278,-0.227983 -0.35278,-0.259861 0,-0.286906 0.21828,-0.01673 0.0992,-0.125751 -0.26459,-0.242261 -0.61575,-0.197199 -0.6214,-0.213658 -0.0818,-0.23821 0.31884,-0.0145 0.65329,0.09269 0.74322,0.23821 0.0899,0.145521 0.72204,0.261936 1.40468,0.2587 1.40456,-0.0067 2.15227,-0.477466 2.79719,-1.761304 0.52823,-1.051539 1.23164,-1.288704 2.25406,-0.759987 0.43661,0.225779 1.10656,0.410507 1.48879,0.410507 0.89911,0 2.24174,1.325409 2.24174,2.212991 0,0.827532 -0.13363,0.909442 -2.03521,1.247497 -2.33562,0.415217 -2.32055,0.406085 -3.90175,2.363114 -0.85882,1.062945 -2.00627,2.132442 -2.73269,2.547051 -0.68872,0.393093 -1.48105,0.902929 -1.76073,1.132969 -0.27967,0.23004 -0.42704,0.278437 -0.32749,0.107549 z"
         id="path66" /><path
         style="fill:#678ef1"
         d="m -281.91928,126.22832 c -0.0136,-0.21828 -0.0248,-0.93265 -0.0248,-1.5875 0,-0.65484 0.0112,-1.29645 0.0248,-1.42579 0.0137,-0.12933 1.48332,-0.23228 3.26595,-0.22876 4.72765,0.009 8.42628,-0.66333 12.76615,-2.32179 9.61846,-3.67563 17.83122,-12.67378 20.52308,-22.485691 0.77368,-2.820076 1.30504,-6.119869 1.29887,-8.066093 l -0.005,-1.719792 -0.49357,1.058334 c -0.27146,0.582083 -1.33413,1.990007 -2.36148,3.12872 -2.34233,2.596249 -2.58232,3.254187 -2.03998,5.592718 0.64346,2.774544 0.59862,2.967714 -0.84803,3.652984 -1.24009,0.58742 -1.25783,0.61361 -1.33645,1.97324 -0.0653,1.12989 -0.20822,1.47902 -0.79375,1.93956 -0.39274,0.3089 -1.08183,1.29501 -1.53131,2.19137 -0.919,1.83266 -2.36867,2.9453 -4.20985,3.2311 l -1.05833,0.16427 -0.64316,-2.33802 c -0.35374,-1.28591 -1.11285,-3.22528 -1.68692,-4.30971 -1.01846,-1.92391 -1.0385,-2.01366 -0.82716,-3.70417 0.41245,-3.29903 0.27576,-4.469226 -0.77325,-6.619806 -0.53037,-1.087301 -0.9643,-2.13501 -0.9643,-2.328243 0,-0.915055 -0.83324,-1.903145 -1.86576,-2.212495 -0.8921,-0.26728 -1.39283,-0.243901 -3.02688,0.141328 -1.8432,0.434535 -2.01323,0.43535 -2.90135,0.01391 -2.0391,-0.967613 -3.61072,-3.766941 -3.78978,-6.750232 -0.14951,-2.490859 0.19698,-3.248632 2.83579,-6.201941 1.0402,-1.164167 1.95544,-2.371734 2.03386,-2.683483 0.0784,-0.311749 -0.0457,-0.930914 -0.27581,-1.375923 -0.50646,-0.97938 -0.52933,-2.386868 -0.0491,-3.019603 0.19388,-0.255433 0.8151,-0.624575 1.38048,-0.820316 0.88157,-0.305208 1.05,-0.491434 1.18267,-1.307648 0.17814,-1.095904 0.65549,-1.773236 1.24971,-1.773236 0.74545,0 2.71546,-1.105176 3.14874,-1.766441 0.3902,-0.595518 0.3891,-0.721531 -0.0137,-1.566235 -0.74558,-1.563492 -0.53269,-2.919755 0.66518,-4.237609 l 0.50795,-0.558827 -2.23967,-0.962151 c -2.90902,-1.249705 -6.57278,-2.24558 -6.71306,-1.824733 -0.0563,0.169013 -0.36434,0.695936 -0.68444,1.170941 -0.47286,0.701663 -1.10791,1.063816 -3.38596,1.930912 -1.54218,0.586997 -3.29376,1.39469 -3.89242,1.794872 -1.17691,0.786731 -1.95717,0.919766 -2.32771,0.396875 -0.28006,-0.395208 -0.26195,-9.380439 0.0195,-9.660792 0.44933,-0.447633 7.67363,-0.156614 10.67069,0.429851 17.85147,3.493175 30.72945,19.069011 30.7682,37.213934 0.0221,10.363344 -3.88313,19.916731 -11.03809,27.002381 -7.48692,7.41439 -16.6893,11.22021 -27.14185,11.22505 -2.81193,0.001 -3.37756,-0.0645 -3.39824,-0.39532 z m 37.85762,-40.027537 c 0.002,-1.300876 -0.0331,-1.379276 -0.50917,-1.124479 -0.86242,0.461552 -2.00099,0.319452 -2.57536,-0.321421 -0.29344,-0.327421 -0.85725,-1.369218 -1.2529,-2.315104 -0.79159,-1.892462 -1.37582,-2.666169 -2.87706,-3.81015 -1.04079,-0.793104 -1.63534,-0.768567 -0.926,0.03822 0.62853,0.714871 1.4988,2.562638 2.64603,5.618073 0.57494,1.531239 1.16786,2.932027 1.31762,3.112862 0.18171,0.21943 0.9212,0.307435 2.22326,0.264584 l 1.95098,-0.06421 z M -257.65033,75.38912 c 0.60121,-0.08516 1.52436,-0.01251 2.05144,0.16144 1.97648,0.652298 3.7993,-0.601121 2.67726,-1.840956 -0.3768,-0.416361 -0.81482,-0.530242 -2.03949,-0.530242 -1.91118,0 -2.81707,-0.44096 -3.72528,-1.813365 -0.94486,-1.427772 -2.30241,-2.419968 -3.31109,-2.419968 -0.96957,0 -5.14903,2.994537 -5.30142,3.798416 -0.1703,0.898329 0.32401,1.016763 2.27662,0.545474 2.1694,-0.523612 2.62782,-0.416608 3.01868,0.704614 0.35911,1.030152 1.69563,1.904148 2.59872,1.699394 0.3638,-0.08248 1.15336,-0.219647 1.75456,-0.304807 z m 103.60338,27.39002 c -1.74606,-0.28685 -2.68734,-0.76594 -3.84322,-1.95611 -1.72643,-1.777656 -1.80471,-2.437159 -1.71464,-14.446798 0.0777,-10.362721 0.0973,-10.715089 0.65121,-11.741661 1.17621,-2.17976 2.88847,-3.217885 5.74793,-3.484905 2.44366,-0.228193 4.4818,0.432274 5.90511,1.913574 1.43339,1.491787 1.93109,3.139338 1.93109,6.392553 v 2.47622 l -2.18282,-0.07685 -2.18281,-0.07685 -0.13229,-2.5406 c -0.1452,-2.788547 -0.34905,-3.224723 -1.71827,-3.676606 -0.69153,-0.228226 -1.08262,-0.207402 -1.80962,0.09636 -1.63495,0.683125 -1.63149,0.659745 -1.63149,11.015639 0,5.165989 0.0907,9.716835 0.20165,10.11299 0.32346,1.155467 1.20215,1.79326 2.47056,1.79326 0.92273,0 1.23645,-0.141709 1.80219,-0.81405 0.64543,-0.767046 0.68498,-0.980928 0.68498,-3.704167 V 91.17103 h 2.2796 2.27961 l -0.10592,3.505729 c -0.0993,3.286423 -0.15501,3.595559 -0.89054,4.941717 -0.92961,1.701334 -2.51511,2.827974 -4.32472,3.073114 -0.67232,0.0911 -1.401,0.19983 -1.61928,0.24169 -0.21828,0.0418 -1.02752,-0.0275 -1.79831,-0.15414 z m 17.23509,0.0359 c -2.51908,-0.52877 -4.41847,-2.1757 -5.15576,-4.470481 -0.43726,-1.360922 -0.63302,-18.429921 -0.24039,-20.960436 0.55331,-3.566191 2.17281,-5.433985 5.26892,-6.076736 3.76436,-0.781478 7.06607,0.496902 8.59333,3.327224 0.55295,1.02473 0.57379,1.390157 0.65656,11.509375 0.0936,11.450761 -0.001,12.485451 -1.30906,14.290994 -1.38247,1.90845 -4.92281,2.98686 -7.8136,2.38006 z m 3.79429,-5.140361 c 0.31832,-0.370074 0.65422,-1.181108 0.74645,-1.802298 0.0922,-0.62119 0.12962,-5.064012 0.0831,-9.872938 -0.0944,-9.763217 -0.10775,-9.835194 -1.92886,-10.436217 -0.79205,-0.261398 -1.09023,-0.234354 -1.92761,0.174825 -1.62575,0.794418 -1.68806,1.256551 -1.59829,11.853592 0.0835,9.85206 0.10889,10.048048 1.38851,10.702457 0.90008,0.460307 2.58538,0.137785 3.2367,-0.619421 z m -35.94456,4.873471 c -1.83428,-0.13752 -2.44597,-0.39905 -1.82742,-0.78134 0.28405,-0.17555 0.25408,-0.25089 -0.13996,-0.35179 -0.47079,-0.12056 -0.4691,-0.13052 0.0277,-0.16314 0.4424,-0.029 0.4641,-0.0775 0.1323,-0.29528 -0.3359,-0.2205 -0.34016,-0.29707 -0.0277,-0.49832 0.2974,-0.19157 0.27169,-0.26274 -0.13229,-0.36618 -0.47079,-0.120553 -0.4691,-0.130519 0.0277,-0.16314 0.4424,-0.02905 0.4641,-0.07746 0.1323,-0.295275 -0.3359,-0.220501 -0.34016,-0.297068 -0.0277,-0.498319 0.2974,-0.191575 0.27169,-0.26274 -0.13229,-0.366183 -0.47079,-0.120552 -0.4691,-0.130518 0.0277,-0.163139 0.4424,-0.02905 0.4641,-0.07746 0.1323,-0.295276 -0.3359,-0.2205 -0.34016,-0.297068 -0.0277,-0.498319 0.2974,-0.191574 0.27169,-0.26274 -0.13229,-0.366183 -0.48373,-0.123865 -0.48394,-0.129479 -0.006,-0.159088 0.40963,-0.02538 0.43838,-0.09941 0.16604,-0.427567 -0.26555,-0.319959 -0.25901,-0.39766 0.0338,-0.400926 0.28521,-0.0032 0.27797,-0.05908 -0.0338,-0.260532 -0.31173,-0.201453 -0.31897,-0.25735 -0.0337,-0.260532 0.29275,-0.0033 0.29929,-0.08097 0.0337,-0.400926 -0.26555,-0.31996 -0.25901,-0.397661 0.0338,-0.400927 0.21871,-0.0024 0.2579,-0.08136 0.0985,-0.198437 -0.14552,-0.106913 -0.26459,-0.37298 -0.26459,-0.591261 0,-0.218282 0.11907,-0.484349 0.26459,-0.591261 0.15936,-0.117081 0.12017,-0.195998 -0.0985,-0.198438 -0.28322,-0.0032 -0.29468,-0.08653 -0.0521,-0.37882 0.24691,-0.297509 0.21268,-0.400271 -0.16604,-0.498475 -0.42013,-0.108939 -0.41391,-0.127853 0.0521,-0.158449 0.4424,-0.02905 0.4641,-0.07746 0.1323,-0.295276 -0.3359,-0.2205 -0.34016,-0.297068 -0.0277,-0.498319 0.2974,-0.191574 0.27169,-0.26274 -0.13229,-0.366183 -0.47079,-0.120552 -0.4691,-0.130518 0.0277,-0.163139 0.4424,-0.02905 0.4641,-0.07746 0.1323,-0.295275 -0.3359,-0.220501 -0.34016,-0.297069 -0.0277,-0.498319 0.2974,-0.191575 0.27169,-0.26274 -0.13229,-0.366183 -0.47079,-0.120553 -0.4691,-0.130519 0.0277,-0.16314 0.4424,-0.02905 0.4641,-0.07746 0.1323,-0.295275 -0.3359,-0.220501 -0.34016,-0.297068 -0.0277,-0.498319 0.2974,-0.191575 0.27169,-0.26274 -0.13229,-0.366183 -0.47079,-0.120552 -0.4691,-0.130518 0.0277,-0.163139 0.4424,-0.02905 0.4641,-0.07746 0.1323,-0.295276 -0.3359,-0.220501 -0.34016,-0.297068 -0.0277,-0.498319 0.2974,-0.191575 0.27169,-0.26274 -0.13229,-0.366183 -0.47079,-0.120552 -0.4691,-0.130518 0.0277,-0.163139 0.4424,-0.02905 0.4641,-0.07746 0.1323,-0.295275 -0.35278,-0.231584 -0.35278,-0.28948 0,-0.521064 0.35277,-0.231584 0.35277,-0.261432 0,-0.268635 -0.32373,-0.0066 -0.33071,-0.05003 -0.0379,-0.235562 0.27507,-0.174295 0.28393,-0.27384 0.0379,-0.425896 -0.24604,-0.152057 -0.23718,-0.251602 0.0379,-0.425897 0.30111,-0.190787 0.30044,-0.228112 -0.004,-0.23151 -0.29276,-0.0033 -0.2993,-0.08097 -0.0338,-0.400927 0.26554,-0.319959 0.259,-0.39766 -0.0337,-0.400926 -0.28522,-0.0032 -0.27798,-0.05908 0.0337,-0.260532 0.31172,-0.201453 0.31896,-0.25735 0.0338,-0.260532 -0.29276,-0.0033 -0.2993,-0.08097 -0.0338,-0.400926 0.26554,-0.31996 0.259,-0.397661 -0.0337,-0.400927 -0.28522,-0.0032 -0.27798,-0.05908 0.0337,-0.260532 0.31172,-0.201452 0.31896,-0.257349 0.0338,-0.260532 -0.28322,-0.0032 -0.29468,-0.08653 -0.0521,-0.37882 0.24691,-0.297509 0.21268,-0.400271 -0.16604,-0.498475 -0.42013,-0.108939 -0.41391,-0.127853 0.0521,-0.158449 0.4424,-0.02905 0.4641,-0.07746 0.1323,-0.295275 -0.3359,-0.220501 -0.34016,-0.297069 -0.0277,-0.498319 0.2974,-0.191575 0.27169,-0.26274 -0.13229,-0.366183 -0.47079,-0.120553 -0.4691,-0.130519 0.0277,-0.16314 0.4424,-0.02905 0.4641,-0.07746 0.1323,-0.295275 -0.3359,-0.220501 -0.34016,-0.297068 -0.0277,-0.498319 0.2974,-0.191575 0.27169,-0.26274 -0.13229,-0.366183 -0.47079,-0.120552 -0.4691,-0.130518 0.0277,-0.163139 0.4424,-0.02905 0.4641,-0.07746 0.1323,-0.295276 -0.3359,-0.220501 -0.34016,-0.297068 -0.0277,-0.498319 0.2974,-0.191575 0.27169,-0.26274 -0.13229,-0.366183 -0.47079,-0.120552 -0.4691,-0.130518 0.0277,-0.163139 0.4424,-0.02905 0.4641,-0.07746 0.1323,-0.295276 -0.3359,-0.2205 -0.34016,-0.297068 -0.0277,-0.498319 0.2974,-0.191574 0.27169,-0.26274 -0.13229,-0.366182 -0.48373,-0.123865 -0.48394,-0.129479 -0.006,-0.159088 0.40963,-0.02538 0.43838,-0.09941 0.16604,-0.427567 -0.26555,-0.31996 -0.25901,-0.397661 0.0338,-0.400927 0.28521,-0.0032 0.27797,-0.05908 -0.0338,-0.260532 -0.31173,-0.201452 -0.31897,-0.257349 -0.0337,-0.260532 0.29275,-0.0033 0.29929,-0.08097 0.0337,-0.400926 -0.26555,-0.31996 -0.25901,-0.39766 0.0338,-0.400927 0.21871,-0.0024 0.2579,-0.08136 0.0985,-0.198437 -0.14552,-0.106912 -0.26459,-0.37298 -0.26459,-0.591261 0,-0.218281 0.11907,-0.484349 0.26459,-0.591261 0.15936,-0.117081 0.12017,-0.195997 -0.0985,-0.198438 -0.29276,-0.0033 -0.2993,-0.08097 -0.0338,-0.400926 0.26824,-0.323215 1.13362,-0.396875 4.6626,-0.396875 h 4.33323 v 2.116667 2.116666 h -2.64345 -2.64345 l -0.0685,13.559897 -0.0685,13.559891 z m 45.02391,-15.473896 V 71.277711 l 4.96093,0.09613 c 5.61902,0.108879 6.62757,0.374172 8.19073,2.154539 1.55885,1.775453 1.665,2.630762 1.665,13.415291 0,10.454774 -0.0793,11.191544 -1.42355,13.222809 -0.44248,0.66863 -1.18145,1.25914 -2.20098,1.75879 -1.48598,0.72825 -1.68857,0.75527 -6.36349,0.84882 l -4.82864,0.0966 z m 8.7157,10.85173 c 0.42059,-0.217498 0.88115,-0.759536 1.04519,-1.230107 0.32183,-0.923185 0.37737,-18.132488 0.0622,-19.25929 -0.3172,-1.133924 -1.46184,-1.739631 -3.29148,-1.741749 l -1.63678,-0.0019 -0.069,11.310938 -0.069,11.310938 h 1.60348 c 0.8931,0 1.93661,-0.172265 2.35541,-0.388836 z m 9.71693,4.710366 c -0.097,-0.097 -0.17638,-7.181235 -0.17638,-15.742711 v -15.56632 h 6.746871 6.746875 l 4.28e-4,2.182812 4.28e-4,2.182813 -3.760646,-0.08076 c -5.491656,-0.117935 -4.999146,-0.544531 -4.912166,4.25471 l 0.073,4.028135 3.373435,0.07405 3.373437,0.07405 v 2.233149 2.233148 l -3.373437,0.07405 -3.373435,0.07405 v 4.7625 4.7625 l 4.299477,0.0727 4.299479,0.0727 v 2.242404 2.24241 h -6.570486 c -3.61377,0 -6.64986,-0.0794 -6.74688,-0.17639 z"
         id="path65" /><path
         style="fill:#656ff0"
         d="m -264.16739,123.4502 c 0.35278,-0.22799 0.35278,-0.25738 0,-0.26459 -0.35278,-0.007 -0.35278,-0.0366 0,-0.26458 0.35278,-0.22798 0.35278,-0.25738 0,-0.26458 -0.35278,-0.007 -0.35278,-0.0366 0,-0.26459 0.35278,-0.22798 0.35278,-0.25738 0,-0.26458 -0.35278,-0.007 -0.35278,-0.0366 0,-0.26458 0.35278,-0.22799 0.35278,-0.25738 0,-0.26459 -0.35278,-0.007 -0.35278,-0.0366 0,-0.26458 0.35278,-0.22798 0.35278,-0.25738 0,-0.26458 -0.35278,-0.007 -0.35278,-0.0366 0,-0.26459 0.29313,-0.18943 0.30548,-0.25754 0.0473,-0.26053 -0.58835,-0.007 0.16143,-0.58452 2.20171,-1.69642 5.38939,-2.93707 10.18951,-7.65923 13.43156,-13.21342 1.57718,-2.70199 2.66706,-5.4996 3.51781,-9.029842 0.6821,-2.83045 1.21864,-8.020497 0.85254,-8.246761 -0.11392,-0.0704 -0.20756,0.08738 -0.20811,0.350632 -0.001,0.683689 -0.75349,1.785422 -2.73916,4.012666 -2.2057,2.474031 -2.43807,3.140153 -1.90192,5.451991 0.64118,2.764714 0.59756,2.952104 -0.84803,3.642734 -1.23985,0.59233 -1.25785,0.61901 -1.33646,1.9811 -0.0682,1.18192 -0.19208,1.46072 -0.86046,1.93665 -0.42943,0.30578 -1.03555,1.14817 -1.34692,1.87197 -0.31378,0.72941 -1.02804,1.71138 -1.60241,2.20302 -1.03774,0.88827 -3.3003,1.68523 -3.65224,1.28646 -0.10297,-0.11667 -0.51402,-1.28003 -0.91345,-2.58526 -0.39944,-1.30523 -1.14694,-3.17622 -1.66112,-4.15776 -0.82391,-1.5728 -0.91459,-1.9349 -0.76402,-3.05082 0.56068,-4.155334 0.56063,-4.155993 -0.4212,-6.223446 -0.50687,-1.067335 -1.07053,-2.561482 -1.25258,-3.320327 -0.18204,-0.758845 -0.46794,-1.381541 -0.63532,-1.383769 -0.16788,-0.0022 -0.12638,-0.119059 0.0925,-0.260532 0.35278,-0.227982 0.35278,-0.257381 0,-0.264583 -0.35278,-0.0072 -0.35278,-0.0366 0,-0.264584 0.35278,-0.227982 0.35278,-0.25738 0,-0.264583 -0.35278,-0.0072 -0.35278,-0.0366 0,-0.264583 0.35278,-0.227983 0.35278,-0.257381 0,-0.264584 -0.35278,-0.0072 -0.35278,-0.0366 0,-0.264583 0.35278,-0.227982 0.35278,-0.257381 0,-0.264583 -0.35278,-0.0072 -0.35278,-0.0366 0,-0.264584 0.35278,-0.227982 0.35278,-0.25738 0,-0.264583 -0.35278,-0.0072 -0.35278,-0.0366 0,-0.264583 0.35278,-0.227983 0.35278,-0.257381 0,-0.264584 -0.35278,-0.0072 -0.35278,-0.0366 0,-0.264583 0.35278,-0.227983 0.35278,-0.257381 0,-0.264583 -0.35278,-0.0072 -0.35278,-0.0366 0,-0.264584 0.35278,-0.227982 0.35278,-0.25738 0,-0.264583 -0.35278,-0.0072 -0.35278,-0.0366 0,-0.264583 0.35278,-0.227983 0.35278,-0.257381 0,-0.264584 -0.35278,-0.0072 -0.35278,-0.0366 0,-0.264583 0.35278,-0.227983 0.35278,-0.257381 0,-0.264583 -0.35278,-0.0072 -0.35278,-0.0366 0,-0.264584 0.35278,-0.227982 0.35278,-0.25738 0,-0.264583 -0.35278,-0.0072 -0.35278,-0.0366 0,-0.264583 0.35278,-0.227983 0.35278,-0.257381 0,-0.264584 -0.35278,-0.0072 -0.35278,-0.0366 0,-0.264583 0.35278,-0.227983 0.35278,-0.257381 0,-0.264583 -0.35278,-0.0072 -0.35278,-0.0366 0,-0.264584 0.35278,-0.227982 0.35278,-0.25738 0,-0.264583 -0.35278,-0.0072 -0.35278,-0.0366 0,-0.264583 0.35278,-0.227983 0.35278,-0.257381 0,-0.264584 -0.35278,-0.0072 -0.35278,-0.0366 0,-0.264583 0.35278,-0.227983 0.35278,-0.257381 0,-0.264584 -0.35278,-0.0072 -0.35278,-0.0366 0,-0.264583 0.35278,-0.227982 0.35278,-0.257381 0,-0.264583 -0.35278,-0.0072 -0.35278,-0.0366 0,-0.264584 0.35278,-0.227982 0.35278,-0.25738 0,-0.264583 -0.35278,-0.0072 -0.35278,-0.0366 0,-0.264583 0.35278,-0.227983 0.35278,-0.257381 0,-0.264584 -0.35278,-0.0072 -0.35278,-0.0366 0,-0.264583 0.35278,-0.227982 0.35278,-0.257381 0,-0.264583 -0.35278,-0.0072 -0.35278,-0.0366 0,-0.264584 0.35278,-0.227982 0.35278,-0.25738 0,-0.264583 -0.35278,-0.0072 -0.35278,-0.0366 0,-0.264583 0.35278,-0.227983 0.35278,-0.257381 0,-0.264584 -0.35278,-0.0072 -0.35278,-0.0366 0,-0.264583 0.35278,-0.227982 0.35278,-0.257381 0,-0.264583 -0.35278,-0.0072 -0.35278,-0.0366 0,-0.264584 0.35278,-0.227982 0.35278,-0.25738 0,-0.264583 -0.35278,-0.0072 -0.35278,-0.0366 0,-0.264583 0.35278,-0.227983 0.35278,-0.257381 0,-0.264584 -0.35278,-0.0072 -0.35278,-0.0366 0,-0.264583 0.35278,-0.227983 0.35278,-0.257381 0,-0.264583 -0.35278,-0.0072 -0.35278,-0.0366 0,-0.264584 0.35278,-0.227982 0.35278,-0.25738 0,-0.264583 -0.35278,-0.0072 -0.35278,-0.0366 0,-0.264583 0.35278,-0.227983 0.35278,-0.257381 0,-0.264584 -0.35278,-0.0072 -0.35278,-0.0366 0,-0.264583 0.35278,-0.227983 0.35278,-0.257381 0,-0.264583 -0.35278,-0.0072 -0.35278,-0.0366 0,-0.264584 0.35278,-0.227982 0.35278,-0.25738 0,-0.264583 -0.35278,-0.0072 -0.35278,-0.0366 0,-0.264583 0.35278,-0.227983 0.35278,-0.257381 0,-0.264584 -0.35278,-0.0072 -0.35278,-0.0366 0,-0.264583 0.35278,-0.227983 0.35278,-0.257381 0,-0.264583 -0.67981,-0.01388 0.29017,-0.520354 1.00569,-0.525116 0.43941,-0.0029 0.70941,0.236705 0.97034,0.861216 0.70086,1.677374 1.99177,2.304802 3.6298,1.764203 0.83752,-0.276407 1.35031,-0.27741 2.71919,-0.0053 1.88354,0.374387 3.09405,0.0561 3.27046,-0.859914 0.17358,-0.90132 -0.7059,-1.499654 -2.2043,-1.499654 -1.90777,0 -2.93129,-0.421194 -3.58199,-1.474054 -0.94081,-1.522259 -2.59455,-2.760481 -3.674,-2.750865 -0.51951,0.0046 -1.17568,0.183222 -1.45815,0.396875 -0.28248,0.213654 -0.63967,0.386638 -0.79375,0.384409 -0.15409,-0.0022 -0.10157,-0.119467 0.11671,-0.260532 0.35278,-0.227982 0.35278,-0.25738 0,-0.264583 -0.35278,-0.0072 -0.35278,-0.0366 0,-0.264583 0.35278,-0.227983 0.35278,-0.257381 0,-0.264584 -0.35278,-0.0072 -0.35278,-0.0366 0,-0.264583 0.35278,-0.227983 0.35278,-0.257381 0,-0.264583 -0.35278,-0.0072 -0.35278,-0.0366 0,-0.264584 0.35278,-0.227982 0.35278,-0.25738 0,-0.264583 -0.35278,-0.0072 -0.35278,-0.0366 0,-0.264583 0.35278,-0.227983 0.35278,-0.257381 0,-0.264584 -0.35278,-0.0072 -0.35278,-0.0366 0,-0.264583 0.35278,-0.227983 0.35278,-0.257381 0,-0.264583 -0.35278,-0.0072 -0.35278,-0.0366 0,-0.264584 0.35278,-0.227982 0.35278,-0.25738 0,-0.264583 -0.35278,-0.0072 -0.35278,-0.0366 0,-0.264583 0.35278,-0.227983 0.35278,-0.257381 0,-0.264584 -0.35278,-0.0072 -0.35278,-0.0366 0,-0.264583 0.21828,-0.141064 0.28913,-0.258304 0.15743,-0.260532 -0.13169,-0.0022 -0.02,-0.246491 0.24812,-0.542807 0.43849,-0.484518 0.45163,-0.637673 0.13061,-1.521354 -0.62345,-1.716178 -0.53875,-2.884003 0.29238,-4.03135 l 0.74805,-1.032643 -0.93924,-0.445699 c -0.67985,-0.322607 -0.84275,-0.506882 -0.58986,-0.667231 0.27766,-0.176052 0.26791,-0.223195 -0.0475,-0.229634 -0.35278,-0.0072 -0.35278,-0.0366 0,-0.264584 0.35278,-0.227982 0.35278,-0.25738 0,-0.264583 -0.35278,-0.0072 -0.35278,-0.0366 0,-0.264583 0.35278,-0.227983 0.35278,-0.257381 0,-0.264584 -0.35278,-0.0072 -0.35278,-0.0366 0,-0.264583 0.35278,-0.227983 0.35278,-0.257381 0,-0.264584 -0.35278,-0.0072 -0.35278,-0.0366 0,-0.264583 0.35278,-0.227982 0.35278,-0.257381 0,-0.264583 -0.35278,-0.0072 -0.35278,-0.0366 0,-0.264584 0.35278,-0.227982 0.35278,-0.25738 0,-0.264583 -0.34475,-0.007 -0.34623,-0.04014 -0.0112,-0.252044 0.27289,-0.172618 1.14747,0.147382 2.99124,1.094463 10.41366,5.349128 17.61341,14.643256 20.05519,25.889149 0.89616,4.127367 1.0125,10.208099 0.27417,14.329717 -1.80921,10.099558 -6.70486,18.054968 -14.86336,24.152928 -2.57468,1.92441 -7.47295,4.63912 -8.35725,4.63174 -0.41035,-0.003 -0.42411,-0.0438 -0.0888,-0.26053 z m 20.10573,-37.203349 0.003,-1.352304 -1.06962,0.285498 c -0.72502,0.193521 -1.21515,0.199527 -1.52135,0.01864 -0.24845,-0.14677 -0.93458,-1.258038 -1.52472,-2.469484 -1.06291,-2.181937 -2.14748,-3.577779 -3.43585,-4.421952 -0.98885,-0.647919 -1.02974,-0.321804 -0.1407,1.122031 0.43711,0.709887 1.34353,2.717954 2.01427,4.462371 0.67074,1.744417 1.34356,3.321123 1.49516,3.503791 0.18532,0.223297 0.91492,0.311086 2.22663,0.267917 l 1.95098,-0.06421 z m 108.52587,15.375219 c 0,-0.72844 0.11982,-1.1922 0.30868,-1.19467 0.2164,-0.003 0.20946,-0.0671 -0.0232,-0.21477 -0.18254,-0.1159 -0.30611,-0.52221 -0.2746,-0.902919 0.0315,-0.380709 0.14972,-0.635072 0.26269,-0.565251 0.11297,0.06982 0.73408,-0.106911 1.38024,-0.392736 0.97393,-0.430817 1.22304,-0.693316 1.45678,-1.535084 0.34547,-1.244135 0.37766,-18.023869 0.0374,-19.489972 -0.27459,-1.183085 -0.8475,-1.695869 -2.14424,-1.919188 -0.76876,-0.132392 -0.94672,-0.284248 -0.99334,-0.847642 -0.0312,-0.377495 0.0925,-0.781178 0.27508,-0.897072 0.23267,-0.147724 0.23961,-0.211929 0.0232,-0.214769 -0.18991,-0.0025 -0.30868,-0.47284 -0.30868,-1.222408 v -1.218356 l 1.4993,0.179833 c 2.00787,0.240833 4.05144,1.200775 4.87731,2.291062 1.48022,1.954113 1.54737,2.596862 1.46236,13.997588 l -0.0779,10.442189 -0.72048,1.455208 c -1.05761,2.136127 -3.20413,3.403497 -5.80591,3.427967 l -1.23472,0.0116 z m 11.59711,-14.639241 4.6e-4,-15.697577 4.82864,0.109941 c 2.75272,0.06267 5.25832,0.248539 5.82807,0.432322 1.3595,0.438532 2.65625,1.634812 3.40467,3.140893 l 0.62299,1.253663 v 10.715625 c 0,10.467971 -0.0134,10.744626 -0.57957,11.97044 -0.31876,0.690147 -0.91407,1.565334 -1.32292,1.944864 -1.57277,1.46001 -1.96096,1.54692 -7.55682,1.69196 l -5.22597,0.13544 z m 9.17997,10.693693 0.74236,-0.638258 0.0835,-9.349763 c 0.0547,-6.12437 -0.0144,-9.681943 -0.20029,-10.312683 -0.37153,-1.260585 -1.59741,-1.8738 -3.52402,-1.762791 l -1.38628,0.07988 -0.069,11.310938 -0.069,11.310938 h 1.84017 c 1.56347,0 1.9518,-0.09597 2.58253,-0.638258 z m 9.27929,-10.60658 -0.0703,-15.742755 6.680727,4.6e-5 6.680729,4.6e-5 1.98e-4,2.182812 1.98e-4,2.182813 h -4.299677 -4.299675 l -0.0729,4.167188 -0.0729,4.167187 h 3.446301 3.446301 v 2.248959 2.248958 h -3.445552 -3.44555 l 0.0721,4.828646 0.0721,4.828646 4.299477,0.0727 4.299479,0.0727 v 2.242402 2.24241 h -6.610469 -6.610467 z"
         id="path64" /><path
         style="fill:#635aef"
         d="m -249.61531,110.48036 c 0,-2.61439 0.065,-3.01867 0.6292,-3.9124 3.40927,-5.40062 5.4719,-13.532883 5.00345,-19.726887 l -0.14738,-1.948727 -0.88803,0.272543 c -1.36504,0.418943 -2.12379,-0.06723 -2.91286,-1.866418 -0.36668,-0.836083 -0.89945,-1.9964 -1.18394,-2.578484 -0.48388,-0.99005 -0.51244,-1.570457 -0.4427,-8.995833 l 0.0746,-7.937501 1.76922,2.366063 c 3.45871,4.625498 5.74432,10.019998 6.84465,16.154772 1.04073,5.802541 0.43657,12.9642 -1.5825,18.758692 -0.7647,2.19461 -2.15883,5.21146 -3.22293,6.97429 -0.73906,1.22437 -3.70063,5.35556 -3.8393,5.35556 -0.0558,0 -0.10144,-1.31205 -0.10144,-2.91567 z m 150.746357,-7.86588 -6.548437,-0.0756 V 86.933074 71.327279 h 6.614582 6.614584 v 2.110112 2.110113 l -4.299479,0.0727 -4.299477,0.0727 v 4.233333 4.233334 l 3.373435,0.07405 3.373437,0.07405 v 2.108762 2.108762 h -3.439583 -3.439579 v 4.894792 4.894792 h 4.365621 4.365625 v 2.248961 c 0,1.23693 -0.02977,2.22137 -0.06615,2.18765 -0.03638,-0.0337 -3.012943,-0.0953 -6.614583,-0.13691 z m -150.732707,-9.484214 0.0137,-8.706112 0.61169,1.5875 0.6117,1.5875 h 2.01498 c 1.10824,0 2.03026,0.0917 2.04893,0.203774 0.16627,0.998012 -0.51701,2.227803 -2.53833,4.568584 -2.54959,2.952543 -2.75545,3.523716 -2.13828,5.932759 0.54275,2.118569 0.53004,2.475049 -0.10883,3.053219 -0.52817,0.47799 -0.52914,0.46254 -0.51552,-8.227224 z"
         id="path63" /></g></g></svg>
