<?xml version="1.0" encoding="UTF-8" standalone="no"?>
<!-- Created with Inkscape (http://www.inkscape.org/) -->

<svg
   width="68.587563mm"
   height="15.874396mm"
   viewBox="0 0 68.587562 15.874396"
   version="1.1"
   id="svg1"
   xml:space="preserve"
   inkscape:export-filename="logo.svg"
   inkscape:export-xdpi="96"
   inkscape:export-ydpi="96"
   xmlns:inkscape="http://www.inkscape.org/namespaces/inkscape"
   xmlns:sodipodi="http://sodipodi.sourceforge.net/DTD/sodipodi-0.dtd"
   xmlns="http://www.w3.org/2000/svg"
   xmlns:svg="http://www.w3.org/2000/svg"><sodipodi:namedview
     id="namedview1"
     pagecolor="#ffffff"
     bordercolor="#000000"
     borderopacity="0.25"
     inkscape:showpageshadow="2"
     inkscape:pageopacity="0.0"
     inkscape:pagecheckerboard="0"
     inkscape:deskcolor="#d1d1d1"
     inkscape:document-units="mm"><inkscape:page
       x="0"
       y="0"
       width="68.587563"
       height="15.874396"
       id="page2"
       margin="0"
       bleed="0" /></sodipodi:namedview><defs
     id="defs1" /><g
     inkscape:label="Layer 1"
     inkscape:groupmode="layer"
     id="layer1"
     transform="translate(-19.82509,-32.271507)"><g
       id="g110"
       transform="translate(-0.28816299,2.1131949)"
       style="display:inline"><path
         style="fill:#800000"
         d="m 26.243659,45.994151 c -1.125809,-0.263184 -2.189889,-0.778705 -3.085254,-1.494732 -0.137843,-0.110233 -0.250623,-0.223846 -0.250623,-0.252473 0,-0.04534 1.124257,-1.193913 2.198881,-2.246447 l 0.352427,-0.345183 0.08117,0.05677 c 0.750586,0.525002 1.349534,0.76632 2.112665,0.851199 l 0.352041,0.03916 0.316455,-0.02128 c 2.125421,-0.142937 3.740636,-1.739053 3.991637,-3.944438 l 0.04086,-0.35901 -0.02067,-0.398753 C 32.295468,37.150176 32.11737,36.493559 31.784655,35.85643 l -0.176347,-0.337692 0.307867,-0.308484 c 0.169327,-0.169666 0.749019,-0.750683 1.288205,-1.291148 0.539186,-0.540466 0.992304,-0.982665 1.00693,-0.982665 0.09336,0 0.674347,0.863361 0.968139,1.438672 0.496589,0.972433 0.766787,1.913068 0.869268,3.026172 l 0.03806,0.413411 -0.0204,0.578776 -0.0204,0.578776 -0.07162,0.458686 c -0.495005,3.1701 -2.845929,5.783175 -5.864984,6.518984 l -0.339709,0.08279 -1.693865,-0.0031 -1.693865,-0.0031 z m 10.569269,-5.359993 0.0087,-5.366081 h 1.03706 1.037061 l 0.0096,0.487826 c 0.0053,0.268304 0.01746,0.487826 0.02711,0.487826 0.0096,0 0.1135,-0.09814 0.23078,-0.218087 0.259027,-0.26492 0.55087,-0.468368 0.898319,-0.626231 l 0.260852,-0.118518 0.341032,-0.06741 0.341031,-0.06741 0.501246,0.01678 0.501245,0.01678 0.273766,0.07124 c 1.510669,0.393106 2.436184,1.671975 2.577312,3.561311 l 0.03288,0.440202 -0.03472,0.471779 c -0.164035,2.229168 -1.378461,3.663006 -3.20267,3.781301 l -0.337946,0.02191 -0.327052,-0.0384 -0.327052,-0.0384 -0.320046,-0.101533 c -0.400232,-0.126973 -0.7562,-0.325084 -1.053418,-0.586272 -0.126498,-0.111163 -0.239278,-0.202115 -0.250623,-0.202115 -0.01134,0 -0.02063,0.773906 -0.02063,1.719791 v 1.719792 h -1.106302 -1.106302 z m 4.554527,0.933161 c 0.433435,-0.120074 0.765982,-0.394609 1.000584,-0.826033 l 0.139145,-0.255881 0.07183,-0.277023 0.07183,-0.277023 0.01981,-0.433154 0.01981,-0.433153 -0.05895,-0.337266 C 42.563024,38.3359 42.48687,38.108556 42.328291,37.822553 l -0.11391,-0.205439 -0.191024,-0.182331 C 41.802558,37.224027 41.568078,37.093862 41.279825,37.02203 L 41.07638,36.97133 H 40.814987 40.553595 L 40.3254,37.03187 c -0.297717,0.07898 -0.523031,0.20763 -0.746837,0.426422 l -0.181448,0.177383 -0.152521,0.304482 c -0.181241,0.361817 -0.254183,0.629914 -0.2963,1.089034 l -0.03118,0.339927 0.03257,0.332117 c 0.14234,1.451421 1.138693,2.220425 2.417772,1.866083 z m 45.562352,2.296307 c -0.230651,-0.0593 -0.448585,-0.178265 -0.646822,-0.353087 l -0.1491,-0.131489 -0.103696,-0.202491 c -0.05703,-0.111371 -0.120497,-0.290418 -0.141033,-0.397882 l -0.03734,-0.195391 0.0232,-0.191196 0.02319,-0.191196 0.09829,-0.198846 c 0.174398,-0.352809 0.501351,-0.626623 0.892837,-0.747725 l 0.185064,-0.05725 0.316182,0.01346 0.316181,0.01346 0.190128,0.09768 c 0.10457,0.05372 0.277044,0.179707 0.383276,0.279962 l 0.193148,0.182283 0.07777,0.198193 c 0.04277,0.109007 0.09396,0.285554 0.113751,0.392328 l 0.03598,0.194134 -0.0366,0.211299 c -0.06904,0.398625 -0.281849,0.721153 -0.624753,0.946869 l -0.15521,0.102167 -0.192453,0.04335 c -0.247673,0.05578 -0.52359,0.05265 -0.761999,-0.0086 z m -6.966426,-0.08511 c -0.602485,-0.05809 -1.406024,-0.262143 -1.83214,-0.465262 -0.91131,-0.4344 -1.556415,-1.244456 -1.633488,-2.051166 l -0.01821,-0.190621 1.150447,0.0087 1.150448,0.0087 0.04132,0.132291 c 0.152599,0.488555 0.530261,0.778807 1.210762,0.930529 l 0.27655,0.06166 0.51853,-0.0028 0.51853,-0.0028 0.233647,-0.05465 c 0.689874,-0.16136 1.007107,-0.575813 0.790289,-1.032484 -0.17202,-0.362313 -0.574769,-0.513982 -2.181987,-0.821702 -2.464809,-0.471914 -3.37625,-1.109064 -3.508652,-2.452751 l -0.02297,-0.233112 0.03759,-0.258597 c 0.186399,-1.282168 1.3142,-2.044655 3.200711,-2.163945 l 0.449909,-0.02845 0.483445,0.02548 c 1.529845,0.08063 2.539381,0.525718 3.130121,1.380022 0.264705,0.382807 0.508962,1.095105 0.437027,1.274453 l -0.0222,0.05536 h -1.085766 -1.085765 l -0.03217,-0.04134 c -0.01769,-0.02274 -0.05864,-0.124968 -0.091,-0.22718 -0.110634,-0.34951 -0.396949,-0.60936 -0.841182,-0.763429 l -0.202171,-0.07012 -0.537251,-0.01498 -0.537251,-0.01498 -0.188691,0.03752 c -0.268402,0.05337 -0.519694,0.173331 -0.666952,0.318396 l -0.126956,0.125066 -0.03743,0.133005 -0.03743,0.133005 0.0228,0.145486 0.0228,0.145487 0.124917,0.132286 c 0.23935,0.253469 0.526496,0.347916 1.945506,0.639914 2.031535,0.418041 2.601833,0.638557 3.179574,1.229441 l 0.215843,0.220753 0.133864,0.267022 c 0.07362,0.146862 0.158687,0.378643 0.189027,0.515069 l 0.05516,0.248047 -0.01747,0.330729 -0.01747,0.330729 -0.100942,0.270056 c -0.249945,0.668699 -0.655288,1.081332 -1.382507,1.407373 l -0.292594,0.131181 -0.385603,0.09298 c -0.212082,0.05114 -0.57759,0.116733 -0.812241,0.14576 l -0.426638,0.05278 -0.541285,-0.0045 c -0.297707,-0.0025 -0.681288,-0.01795 -0.852403,-0.03445 z m -9.719274,-0.140273 c -0.344216,-0.0626 -0.57164,-0.137704 -0.893309,-0.295005 L 69.074248,43.208001 68.779146,42.925667 68.484043,42.643334 68.337318,42.37172 C 68.152523,42.029636 68.10155,41.893538 68.0117,41.502322 L 67.93954,41.18813 67.92578,38.31272 c -0.0076,-1.581475 -0.0047,-2.909978 0.0064,-2.952228 l 0.02015,-0.07682 1.079489,0.0087 1.079489,0.0087 0.01949,2.728516 0.01949,2.728516 0.05511,0.173436 c 0.132823,0.41804 0.319483,0.63797 0.672804,0.792727 l 0.187522,0.08214 0.26602,0.01697 0.266019,0.01697 0.203755,-0.03652 c 0.288733,-0.05175 0.544028,-0.172858 0.746669,-0.354204 l 0.174835,-0.156462 0.09918,-0.201385 c 0.05455,-0.110761 0.127758,-0.313006 0.162688,-0.449432 l 0.06351,-0.248046 0.01791,-2.546615 0.01791,-2.546615 h 1.088913 1.088913 v 4.101042 4.101042 h -0.985207 -0.985207 l -0.0096,-0.471289 c -0.0053,-0.259209 -0.022,-0.471289 -0.03717,-0.471289 -0.01517,0 -0.108951,0.09595 -0.2084,0.213217 -0.325661,0.384016 -0.810685,0.672554 -1.369561,0.814742 l -0.27655,0.07036 -0.449392,0.01214 -0.449393,0.01214 z M 54.38626,43.467456 c -0.02815,-0.07019 -0.02023,-7.527701 0.0084,-7.885186 l 0.0225,-0.28112 h 1.03706 1.03706 l -0.01035,0.487826 -0.01035,0.487825 0.02763,-3.2e-4 c 0.0152,-1.77e-4 0.125412,-0.10385 0.244919,-0.230386 l 0.217286,-0.230065 0.265824,-0.16696 c 0.32551,-0.204447 0.688213,-0.341634 1.098026,-0.415309 l 0.310267,-0.05578 0.501246,0.01665 0.501246,0.01665 0.2587,0.072 c 0.575824,0.160264 0.970556,0.436944 1.410787,0.988867 l 0.06223,0.07802 0.146721,-0.185922 c 0.308969,-0.39152 0.864958,-0.733232 1.440153,-0.885122 l 0.276549,-0.07303 0.639521,-8.41e-4 0.63952,-8.42e-4 0.274544,0.07345 c 0.378889,0.101362 0.735189,0.277067 1.009996,0.498066 l 0.232143,0.186689 0.164882,0.23151 c 0.196974,0.276568 0.346773,0.625543 0.433001,1.008724 l 0.06326,0.28112 v 3.009635 3.009636 h -1.088914 -1.088913 l -0.01728,-2.761589 -0.01729,-2.761588 -0.08009,-0.212232 c -0.140813,-0.373129 -0.330311,-0.573238 -0.680419,-0.718519 l -0.138274,-0.05738 -0.362971,-4.67e-4 -0.362971,-4.67e-4 -0.190128,0.07222 -0.190128,0.07222 -0.176168,0.147573 -0.176167,0.147573 -0.125525,0.228538 c -0.06904,0.125696 -0.152177,0.323742 -0.184751,0.440102 l -0.05923,0.211564 -0.01934,2.596224 -0.01934,2.596224 h -1.088913 -1.088913 l -0.01903,-2.711979 -0.01903,-2.71198 -0.04048,-0.135614 C 59.22752,37.182381 58.588574,36.83452 57.760561,37.02129 57.13718,37.161902 56.821187,37.505236 56.66255,38.214306 l -0.05858,0.261844 0.0062,2.464231 c 0.0034,1.355327 -0.0041,2.490142 -0.01685,2.52181 l -0.02309,0.05758 h -1.081516 -1.081517 z m -6.329766,-0.03389 c -0.13309,-0.02626 -0.353935,-0.101094 -0.490767,-0.166308 L 47.316941,43.148689 47.165856,43.006183 C 46.975709,42.826834 46.814733,42.539944 46.71756,42.207237 l -0.07548,-0.25843 -0.01204,-2.554883 c -0.0066,-1.405186 -0.01505,-2.557731 -0.01874,-2.561212 -0.0037,-0.0035 -0.286704,-0.01464 -0.628934,-0.0248 l -0.622236,-0.01848 -0.0093,-0.723425 -0.0093,-0.723424 0.03882,-0.04475 0.03882,-0.04475 0.592741,-0.009 0.592742,-0.009 0.01728,-0.777214 0.01729,-0.777214 0.328402,-0.154158 c 0.914016,-0.429056 1.593416,-0.724252 1.624535,-0.705852 l 0.03476,0.02056 v 1.205209 1.20521 h 0.690157 0.690157 l 0.03579,0.06397 0.03578,0.06397 -5.29e-4,0.671901 c -2.91e-4,0.369545 -0.01267,0.69018 -0.0275,0.71252 l -0.02697,0.04062 -0.689799,0.009 -0.6898,0.009 v 2.265494 2.265495 l 0.08112,0.124825 c 0.09885,0.152118 0.232909,0.22248 0.467229,0.245234 l 0.177596,0.01725 0.310919,-0.05163 0.310918,-0.05163 0.02817,0.02695 c 0.01549,0.01482 0.04477,0.371285 0.06506,0.792135 l 0.03689,0.765183 -0.03852,0.04441 c -0.04973,0.05733 -0.223964,0.106087 -0.605613,0.169482 l -0.307004,0.051 -0.436222,-0.0027 -0.436223,-0.0027 z m 3.149629,0.0013 c -0.02828,-0.0705 -0.02053,-7.526712 0.0082,-7.885639 l 0.0225,-0.28112 h 1.106197 1.106198 v 4.101042 4.101042 l -1.11096,0.0087 -1.110959,0.0087 z M 21.510107,42.747505 c -1.227075,-1.819818 -1.673263,-4.114204 -1.228697,-6.31821 0.607506,-3.011816 2.932449,-5.44956 5.873218,-6.158173 l 0.468168,-0.11281 h 1.461634 1.461634 l 0.45774,0.113221 c 0.835091,0.206558 1.632652,0.542969 2.322397,0.979587 0.455097,0.288082 0.710203,0.484326 0.710203,0.546332 0,0.04925 -2.43246,2.512924 -2.508731,2.540926 -0.02147,0.0079 -0.168165,-0.06011 -0.325978,-0.151104 -0.319407,-0.184163 -0.624681,-0.30872 -1.088836,-0.444262 l -0.311118,-0.09085 -0.691373,-5.34e-4 -0.691374,-5.33e-4 -0.340059,0.08798 c -0.408044,0.105572 -0.96371,0.353433 -1.318706,0.588223 l -0.259235,0.171455 -0.323571,0.322528 c -1.358364,1.353987 -1.72847,3.47723 -0.919015,5.272254 0.07462,0.165464 0.135701,0.317583 0.135745,0.338041 1.29e-4,0.05849 -2.559302,2.574324 -2.630857,2.586042 l -0.06399,0.01048 z m 30.518572,-8.355014 c -0.238508,-0.04837 -0.472352,-0.172201 -0.656918,-0.34786 l -0.17617,-0.167666 -0.07445,-0.190385 -0.07445,-0.190385 v -0.193399 -0.193399 l 0.05894,-0.174601 0.05894,-0.174601 0.181934,-0.188007 0.181933,-0.188007 0.217161,-0.0953 0.217162,-0.0953 0.329129,-6.39e-4 0.329129,-6.4e-4 0.230359,0.108498 0.230358,0.108499 0.155954,0.165953 0.155955,0.165953 0.0744,0.188569 0.07441,0.18857 -0.01533,0.237224 -0.01533,0.237224 -0.09353,0.182888 -0.09353,0.182889 -0.172774,0.148617 -0.172774,0.148618 -0.186698,0.06683 c -0.219858,0.0787 -0.564711,0.110243 -0.763809,0.06986 z"
         id="path114" /><g
         id="g116"><path
           style="fill:#000000"
           d="m 26.243659,45.994151 c -1.125809,-0.263184 -2.189889,-0.778705 -3.085254,-1.494732 -0.137843,-0.110233 -0.250623,-0.223846 -0.250623,-0.252473 0,-0.04534 1.124257,-1.193913 2.198881,-2.246447 l 0.352427,-0.345183 0.08117,0.05677 c 0.750586,0.525002 1.349534,0.76632 2.112665,0.851199 l 0.352041,0.03916 0.316455,-0.02128 c 2.125421,-0.142937 3.740636,-1.739053 3.991637,-3.944438 l 0.04086,-0.35901 -0.02067,-0.398753 C 32.295468,37.150176 32.11737,36.493559 31.784655,35.85643 l -0.176347,-0.337692 0.307867,-0.308484 c 0.169327,-0.169666 0.749019,-0.750683 1.288205,-1.291148 0.539186,-0.540466 0.992304,-0.982665 1.00693,-0.982665 0.09336,0 0.674347,0.863361 0.968139,1.438672 0.496589,0.972433 0.766787,1.913068 0.869268,3.026172 l 0.03806,0.413411 -0.0204,0.578776 -0.0204,0.578776 -0.07162,0.458686 c -0.495005,3.1701 -2.845929,5.783175 -5.864984,6.518984 l -0.339709,0.08279 -1.693865,-0.0031 -1.693865,-0.0031 z m 10.569269,-5.359993 0.0087,-5.366081 h 1.03706 1.037061 l 0.0096,0.487826 c 0.0053,0.268304 0.01746,0.487826 0.02711,0.487826 0.0096,0 0.1135,-0.09814 0.23078,-0.218087 0.259027,-0.26492 0.55087,-0.468368 0.898319,-0.626231 l 0.260852,-0.118518 0.341032,-0.06741 0.341031,-0.06741 0.501246,0.01678 0.501245,0.01678 0.273766,0.07124 c 1.510669,0.393106 2.436184,1.671975 2.577312,3.561311 l 0.03288,0.440202 -0.03472,0.471779 c -0.164035,2.229168 -1.378461,3.663006 -3.20267,3.781301 l -0.337946,0.02191 -0.327052,-0.0384 -0.327052,-0.0384 -0.320046,-0.101533 c -0.400232,-0.126973 -0.7562,-0.325084 -1.053418,-0.586272 -0.126498,-0.111163 -0.239278,-0.202115 -0.250623,-0.202115 -0.01134,0 -0.02063,0.773906 -0.02063,1.719791 v 1.719792 h -1.106302 -1.106302 z m 4.554527,0.933161 c 0.433435,-0.120074 0.765982,-0.394609 1.000584,-0.826033 l 0.139145,-0.255881 0.07183,-0.277023 0.07183,-0.277023 0.01981,-0.433154 0.01981,-0.433153 -0.05895,-0.337266 C 42.563024,38.3359 42.48687,38.108556 42.328291,37.822553 l -0.11391,-0.205439 -0.191024,-0.182331 C 41.802558,37.224027 41.568078,37.093862 41.279825,37.02203 L 41.07638,36.97133 H 40.814987 40.553595 L 40.3254,37.03187 c -0.297717,0.07898 -0.523031,0.20763 -0.746837,0.426422 l -0.181448,0.177383 -0.152521,0.304482 c -0.181241,0.361817 -0.254183,0.629914 -0.2963,1.089034 l -0.03118,0.339927 0.03257,0.332117 c 0.14234,1.451421 1.138693,2.220425 2.417772,1.866083 z m 38.595926,2.211201 c -0.602485,-0.05809 -1.406024,-0.262143 -1.83214,-0.465262 -0.91131,-0.4344 -1.556415,-1.244456 -1.633488,-2.051166 l -0.01821,-0.190621 1.150447,0.0087 1.150448,0.0087 0.04132,0.132291 c 0.152599,0.488555 0.530261,0.778807 1.210762,0.930529 l 0.27655,0.06166 0.51853,-0.0028 0.51853,-0.0028 0.233647,-0.05465 c 0.689874,-0.16136 1.007107,-0.575813 0.790289,-1.032484 -0.17202,-0.362313 -0.574769,-0.513982 -2.181987,-0.821702 -2.464809,-0.471914 -3.37625,-1.109064 -3.508652,-2.452751 l -0.02297,-0.233112 0.03759,-0.258597 c 0.186399,-1.282168 1.3142,-2.044655 3.200711,-2.163945 l 0.449909,-0.02845 0.483445,0.02548 c 1.529845,0.08063 2.539381,0.525718 3.130121,1.380022 0.264705,0.382807 0.508962,1.095105 0.437027,1.274453 l -0.0222,0.05536 h -1.085766 -1.085765 l -0.03217,-0.04134 c -0.01769,-0.02274 -0.05864,-0.124968 -0.091,-0.22718 -0.110634,-0.34951 -0.396949,-0.60936 -0.841182,-0.763429 l -0.202171,-0.07012 -0.537251,-0.01498 -0.537251,-0.01498 -0.188691,0.03752 c -0.268402,0.05337 -0.519694,0.173331 -0.666952,0.318396 l -0.126956,0.125066 -0.03743,0.133005 -0.03743,0.133005 0.0228,0.145486 0.0228,0.145487 0.124917,0.132286 c 0.23935,0.253469 0.526496,0.347916 1.945506,0.639914 2.031535,0.418041 2.601833,0.638557 3.179574,1.229441 l 0.215843,0.220753 0.133864,0.267022 c 0.07362,0.146862 0.158687,0.378643 0.189027,0.515069 l 0.05516,0.248047 -0.01747,0.330729 -0.01747,0.330729 -0.100942,0.270056 c -0.249945,0.668699 -0.655288,1.081332 -1.382507,1.407373 l -0.292594,0.131181 -0.385603,0.09298 c -0.212082,0.05114 -0.57759,0.116733 -0.812241,0.14576 l -0.426638,0.05278 -0.541285,-0.0045 c -0.297707,-0.0025 -0.681288,-0.01795 -0.852403,-0.03445 z m -9.719274,-0.140273 c -0.344216,-0.0626 -0.57164,-0.137704 -0.893309,-0.295005 l -0.27655,-0.135237 -0.295102,-0.282334 -0.295103,-0.282333 -0.146725,-0.271614 C 68.152523,42.029636 68.10155,41.893538 68.0117,41.502322 L 67.93954,41.18813 67.92578,38.31272 c -0.0076,-1.581475 -0.0047,-2.909978 0.0064,-2.952228 l 0.02015,-0.07682 1.079489,0.0087 1.079489,0.0087 0.01949,2.728516 0.01949,2.728516 0.05511,0.173436 c 0.132823,0.41804 0.319483,0.63797 0.672804,0.792727 l 0.187522,0.08214 0.26602,0.01697 0.266019,0.01697 0.203755,-0.03652 c 0.288733,-0.05175 0.544028,-0.172858 0.746669,-0.354204 l 0.174835,-0.156462 0.09918,-0.201385 c 0.05455,-0.110761 0.127758,-0.313006 0.162688,-0.449432 l 0.06351,-0.248046 0.01791,-2.546615 0.01791,-2.546615 h 1.088913 1.088913 v 4.101042 4.101042 h -0.985207 -0.985207 l -0.0096,-0.471289 c -0.0053,-0.259209 -0.022,-0.471289 -0.03717,-0.471289 -0.01517,0 -0.108951,0.09595 -0.2084,0.213217 -0.325661,0.384016 -0.810685,0.672554 -1.369561,0.814742 l -0.27655,0.07036 -0.449392,0.01214 -0.449393,0.01214 z M 54.38626,43.467456 c -0.02815,-0.07019 -0.02023,-7.527701 0.0084,-7.885186 l 0.0225,-0.28112 h 1.03706 1.03706 l -0.01035,0.487826 -0.01035,0.487825 0.02763,-3.2e-4 c 0.0152,-1.77e-4 0.125412,-0.10385 0.244919,-0.230386 l 0.217286,-0.230065 0.265824,-0.16696 c 0.32551,-0.204447 0.688213,-0.341634 1.098026,-0.415309 l 0.310267,-0.05578 0.501246,0.01665 0.501246,0.01665 0.2587,0.072 c 0.575824,0.160264 0.970556,0.436944 1.410787,0.988867 l 0.06223,0.07802 0.146721,-0.185922 c 0.308969,-0.39152 0.864958,-0.733232 1.440153,-0.885122 l 0.276549,-0.07303 0.639521,-8.41e-4 0.63952,-8.42e-4 0.274544,0.07345 c 0.378889,0.101362 0.735189,0.277067 1.009996,0.498066 l 0.232143,0.186689 0.164882,0.23151 c 0.196974,0.276568 0.346773,0.625543 0.433001,1.008724 l 0.06326,0.28112 v 3.009635 3.009636 h -1.088914 -1.088913 l -0.01728,-2.761589 -0.01729,-2.761588 -0.08009,-0.212232 c -0.140813,-0.373129 -0.330311,-0.573238 -0.680419,-0.718519 l -0.138274,-0.05738 -0.362971,-4.67e-4 -0.362971,-4.67e-4 -0.190128,0.07222 -0.190128,0.07222 -0.176168,0.147573 -0.176167,0.147573 -0.125525,0.228538 c -0.06904,0.125696 -0.152177,0.323742 -0.184751,0.440102 l -0.05923,0.211564 -0.01934,2.596224 -0.01934,2.596224 h -1.088913 -1.088913 l -0.01903,-2.711979 -0.01903,-2.71198 -0.04048,-0.135614 C 59.22752,37.182381 58.588574,36.83452 57.760561,37.02129 57.13718,37.161902 56.821187,37.505236 56.66255,38.214306 l -0.05858,0.261844 0.0062,2.464231 c 0.0034,1.355327 -0.0041,2.490142 -0.01685,2.52181 l -0.02309,0.05758 h -1.081516 -1.081517 z m -6.329766,-0.03389 c -0.13309,-0.02626 -0.353935,-0.101094 -0.490767,-0.166308 L 47.316941,43.148689 47.165856,43.006183 C 46.975709,42.826834 46.814733,42.539944 46.71756,42.207237 l -0.07548,-0.25843 -0.01204,-2.554883 c -0.0066,-1.405186 -0.01505,-2.557731 -0.01874,-2.561212 -0.0037,-0.0035 -0.286704,-0.01464 -0.628934,-0.0248 l -0.622236,-0.01848 -0.0093,-0.723425 -0.0093,-0.723424 0.03882,-0.04475 0.03882,-0.04475 0.592741,-0.009 0.592742,-0.009 0.01728,-0.777214 0.01729,-0.777214 0.328402,-0.154158 c 0.914016,-0.429056 1.593416,-0.724252 1.624535,-0.705852 l 0.03476,0.02056 v 1.205209 1.20521 h 0.690157 0.690157 l 0.03579,0.06397 0.03578,0.06397 -5.29e-4,0.671901 c -2.91e-4,0.369545 -0.01267,0.69018 -0.0275,0.71252 l -0.02697,0.04062 -0.689799,0.009 -0.6898,0.009 v 2.265494 2.265495 l 0.08112,0.124825 c 0.09885,0.152118 0.232909,0.22248 0.467229,0.245234 l 0.177596,0.01725 0.310919,-0.05163 0.310918,-0.05163 0.02817,0.02695 c 0.01549,0.01482 0.04477,0.371285 0.06506,0.792135 l 0.03689,0.765183 -0.03852,0.04441 c -0.04973,0.05733 -0.223964,0.106087 -0.605613,0.169482 l -0.307004,0.051 -0.436222,-0.0027 -0.436223,-0.0027 z m 3.149629,0.0013 c -0.02828,-0.0705 -0.02053,-7.526712 0.0082,-7.885639 l 0.0225,-0.28112 h 1.106197 1.106198 v 4.101042 4.101042 l -1.11096,0.0087 -1.110959,0.0087 z m 0.822556,-9.042345 c -0.238508,-0.04837 -0.472352,-0.172201 -0.656918,-0.34786 l -0.17617,-0.167666 -0.07445,-0.190385 -0.07445,-0.190385 v -0.193399 -0.193399 l 0.05894,-0.174601 0.05894,-0.174601 0.181934,-0.188007 0.181933,-0.188007 0.217161,-0.0953 0.217162,-0.0953 0.329129,-6.39e-4 0.329129,-6.4e-4 0.230359,0.108498 0.230358,0.108499 0.155954,0.165953 0.155955,0.165953 0.0744,0.188569 0.07441,0.18857 -0.01533,0.237224 -0.01533,0.237224 -0.09353,0.182888 -0.09353,0.182889 -0.172774,0.148617 -0.172774,0.148618 -0.186698,0.06683 c -0.219858,0.0787 -0.564711,0.110243 -0.763809,0.06986 z"
           id="path113" /></g><path
         style="fill:#ffffff"
         d="m 26.347877,45.928734 c -0.04753,-0.01456 -0.07087,-0.02866 -0.05185,-0.03133 0.01901,-0.0027 -0.144325,-0.05486 -0.362971,-0.115984 -1.003726,-0.280586 -1.903225,-0.73671 -2.735206,-1.386986 -0.130735,-0.102183 -0.237701,-0.199802 -0.237701,-0.21693 0,-0.02469 0.938129,-0.980259 1.626472,-1.65671 0.06559,-0.06445 0.280914,-0.276533 0.478507,-0.471289 0.197593,-0.194756 0.371996,-0.354102 0.387562,-0.354102 0.01557,0 0.154195,0.08201 0.308064,0.182254 0.649434,0.42308 1.29213,0.640372 2.057376,0.695588 l 0.312199,0.02253 0.368928,-0.038 c 0.202911,-0.0209 0.490208,-0.0678 0.638439,-0.104225 l 0.269511,-0.06622 0.416222,-0.194116 c 1.287219,-0.600328 2.149805,-1.708133 2.473527,-3.17671 l 0.07655,-0.347265 0.0018,-0.595313 0.0018,-0.595312 -0.05913,-0.314193 C 32.235416,36.72576 32.038639,36.157134 31.84063,35.785046 l -0.167744,-0.315216 0.06918,-0.08414 c 0.03805,-0.04628 0.445182,-0.457502 0.904746,-0.913838 0.459564,-0.456335 0.991004,-0.984153 1.180978,-1.172929 l 0.345407,-0.343229 0.05234,0.03159 c 0.02879,0.01737 0.180849,0.214461 0.33791,0.437972 1.379752,1.963502 1.786655,4.533747 1.100756,6.953026 -0.738137,2.603531 -2.819878,4.6694 -5.444656,5.403143 -0.218647,0.06112 -0.381984,0.113314 -0.362971,0.115984 0.01901,0.0027 -0.0043,0.01677 -0.05185,0.03133 -0.04753,0.01456 -0.825327,0.02648 -1.728434,0.02648 -0.903106,0 -1.680901,-0.01192 -1.728433,-0.02648 z m 11.001481,-0.02474 c 0.299451,-0.0055 0.789462,-0.0055 1.088913,0 0.299451,0.0055 0.05445,0.01001 -0.544457,0.01001 -0.598902,0 -0.843908,-0.0045 -0.544456,-0.01001 z m -0.492604,-5.349609 v -5.308203 h 0.985207 0.985208 v 0.51263 0.51263 h 0.04663 c 0.02564,0 0.208427,-0.153701 0.406182,-0.341558 l 0.359554,-0.341557 0.328403,-0.152836 c 0.180621,-0.08406 0.429516,-0.179278 0.553099,-0.211596 l 0.224696,-0.05876 0.622236,7.93e-4 0.622236,7.94e-4 0.311118,0.09089 c 0.792529,0.231513 1.320144,0.61067 1.777915,1.277652 l 0.204138,0.297434 0.141173,0.345451 c 0.155069,0.379454 0.253753,0.746034 0.316823,1.176891 l 0.04115,0.28112 -9.26e-4,0.578776 -9.27e-4,0.578776 -0.05682,0.353618 c -0.272765,1.697635 -1.196505,2.830228 -2.578088,3.160978 l -0.224696,0.05379 -0.535815,-0.0017 -0.535814,-0.0017 -0.276549,-0.07056 c -0.152103,-0.03881 -0.438082,-0.146747 -0.635511,-0.239868 l -0.358962,-0.169312 -0.287475,-0.264045 -0.287475,-0.264046 -0.0363,0.02146 -0.03629,0.02146 v 1.734376 1.734376 h -1.037061 -1.03706 z m 4.447254,1.028735 c 0.273445,-0.06966 0.526947,-0.21459 0.759961,-0.434488 l 0.212042,-0.200106 0.14317,-0.272431 0.143171,-0.272431 0.07574,-0.288442 0.07574,-0.288441 -0.0019,-0.578776 -0.0019,-0.578776 -0.08846,-0.316502 c -0.04861,-0.174077 -0.146303,-0.426482 -0.217057,-0.560902 l -0.128643,-0.244399 -0.205081,-0.204329 -0.20508,-0.204328 -0.200237,-0.102107 c -0.514765,-0.262496 -1.153283,-0.270624 -1.68439,-0.02144 l -0.246115,0.115471 -0.220985,0.224119 -0.220985,0.22412 -0.112063,0.224451 c -0.446639,0.894573 -0.447234,2.085324 -0.0015,2.907431 l 0.138621,0.255644 0.213956,0.190841 c 0.24409,0.217719 0.481313,0.350337 0.75061,0.419621 l 0.186511,0.04799 0.328402,0.0018 0.328402,0.0018 z m 38.608031,2.060042 c -0.943588,-0.108585 -1.757683,-0.383808 -2.324388,-0.785813 l -0.27712,-0.196581 -0.179293,-0.209832 -0.179293,-0.209832 -0.16787,-0.330729 C 76.626109,41.599158 76.541593,41.33346 76.541593,41.14807 v -0.08105 h 1.086461 1.08646 l 0.05441,0.179052 0.05441,0.179053 0.135757,0.164314 c 0.225718,0.273199 0.551903,0.444925 1.056662,0.5563 l 0.27655,0.06102 0.501245,-0.003 0.501246,-0.003 0.246026,-0.05157 c 0.310771,-0.06514 0.627731,-0.217095 0.765137,-0.366821 l 0.106387,-0.115925 0.0438,-0.187232 0.0438,-0.187233 -0.04284,-0.153247 c -0.128558,-0.459866 -0.626185,-0.678599 -2.159782,-0.949337 -2.195775,-0.387638 -3.21614,-0.971371 -3.502127,-2.003504 l -0.05853,-0.21124 -4.7e-4,-0.380338 -4.69e-4,-0.380339 0.06118,-0.214974 c 0.03365,-0.118235 0.110532,-0.311712 0.17085,-0.429947 l 0.10967,-0.214974 0.293834,-0.281333 0.293833,-0.281333 0.362971,-0.17155 c 0.437846,-0.206936 0.830685,-0.319586 1.373601,-0.39389 l 0.406686,-0.05566 0.622236,3.32e-4 0.622237,3.33e-4 0.449392,0.07384 c 1.298076,0.213299 2.108285,0.703537 2.539298,1.536472 0.139341,0.269276 0.278049,0.710497 0.278049,0.884455 v 0.09393 h -1.071629 -1.071628 v -0.04837 c 0,-0.0266 -0.03354,-0.134127 -0.07453,-0.238943 l -0.07453,-0.190575 -0.172678,-0.174681 -0.172678,-0.174682 -0.234344,-0.112164 -0.234344,-0.112165 -0.250251,-0.04038 -0.250251,-0.04038 -0.504029,0.01652 -0.50403,0.01652 -0.172843,0.05899 c -0.833136,0.284345 -0.957474,1.027788 -0.233627,1.396901 0.270261,0.137815 0.617377,0.229883 1.702796,0.451645 1.916397,0.391538 2.53343,0.624251 3.095742,1.167553 l 0.224732,0.217134 0.137989,0.267802 0.13799,0.267802 0.05445,0.248047 0.05445,0.248047 -0.0153,0.322965 c -0.0084,0.17763 -0.02506,0.3323 -0.03699,0.34371 -0.03923,0.03753 -0.131064,-0.0643 -0.234085,-0.259553 -0.125737,-0.238306 -0.144176,-0.238306 -0.269915,5e-6 l -0.101386,0.192153 -0.143869,0.124354 c -0.07913,0.06839 -0.212622,0.152549 -0.296652,0.18701 -0.08403,0.03446 -0.152782,0.0786 -0.152782,0.09808 0,0.01948 0.06875,0.06362 0.152782,0.09808 0.179383,0.07357 0.417866,0.270593 0.490757,0.405449 l 0.0514,0.09509 -0.02051,0.06182 c -0.03275,0.09873 -0.412342,0.376124 -0.737778,0.539153 -0.372315,0.186513 -0.727738,0.294015 -1.284829,0.388612 l -0.432108,0.07337 -0.743227,0.01018 c -0.408774,0.0056 -0.867674,-0.0041 -1.019776,-0.02165 z M 70.202833,43.49831 C 69.693349,43.396788 69.392128,43.269229 69.014684,42.995163 L 68.76448,42.813488 68.603562,42.609978 C 68.26958,42.187597 68.07289,41.668869 68.004323,41.029608 l -0.03576,-0.333403 V 37.98773 35.279255 h 1.035199 1.035199 l 0.01206,2.687174 0.01206,2.687175 0.05999,0.198437 c 0.03299,0.109141 0.09832,0.274178 0.145178,0.366749 l 0.08519,0.168312 0.175749,0.141782 c 0.09666,0.07798 0.254955,0.170575 0.35176,0.205766 l 0.17601,0.06399 0.279298,0.01803 0.279297,0.01803 0.238419,-0.05376 c 0.650769,-0.146753 1.010453,-0.515382 1.181988,-1.211383 l 0.0608,-0.246678 0.01323,-2.52181 0.01323,-2.52181 h 1.035094 1.035094 v 4.051432 4.051432 H 74.260061 73.326707 V 42.88603 42.389936 h -0.06524 -0.06524 l -0.196347,0.2325 c -0.34027,0.402923 -0.744852,0.658998 -1.280609,0.810545 l -0.311118,0.088 -0.483961,0.01232 -0.483962,0.01232 z M 54.433127,43.339951 c -0.0095,-0.02374 -0.01301,-1.843381 -0.0078,-4.043657 l 0.0096,-4.000503 0.99779,-0.0088 0.997789,-0.0088 -0.02512,0.496215 -0.02512,0.496216 0.05312,0.0195 0.05312,0.0195 0.339672,-0.327874 0.339672,-0.327873 0.313476,-0.152709 c 0.172412,-0.08399 0.436862,-0.186593 0.587667,-0.228005 l 0.274192,-0.0753 0.622236,-6.67e-4 0.622236,-6.67e-4 0.214613,0.05684 c 0.546775,0.144812 1.005332,0.439957 1.327449,0.854394 0.20806,0.267692 0.231383,0.273969 0.359711,0.0968 0.05298,-0.07314 0.202112,-0.228457 0.331413,-0.345155 l 0.235092,-0.212177 0.35602,-0.167391 c 0.195811,-0.09207 0.449356,-0.191455 0.563432,-0.220868 l 0.207412,-0.05348 0.528489,-0.01681 0.528488,-0.01681 0.214738,0.03867 c 0.118106,0.02127 0.343901,0.07719 0.501765,0.12426 l 0.287028,0.08559 0.213556,0.132055 c 0.117456,0.07263 0.31688,0.230909 0.443165,0.35173 l 0.229609,0.219674 0.142436,0.271034 c 0.165466,0.314856 0.264116,0.63894 0.314496,1.033189 l 0.03581,0.280252 v 2.83687 2.83687 h -1.037061 -1.03706 l -6e-4,-2.637565 -6e-4,-2.637565 -0.04928,-0.222471 C 64.426828,37.573179 64.334536,37.39091 64.15062,37.202796 l -0.158546,-0.162164 -0.202759,-0.08706 -0.202758,-0.08706 -0.254734,-0.01986 -0.254735,-0.01986 -0.234075,0.05271 c -0.573202,0.129078 -0.922217,0.4766 -1.104729,1.100006 l -0.07603,0.25971 -0.01164,2.571419 -0.01164,2.571419 h -1.035297 -1.035303 v -2.581081 -2.581082 l -0.0541,-0.250561 c -0.072,-0.33348 -0.18545,-0.569617 -0.361432,-0.752274 L 59.007864,37.06658 58.824433,36.98356 c -0.100887,-0.04566 -0.292515,-0.100918 -0.42584,-0.122792 l -0.242409,-0.03977 -0.270472,0.04019 -0.270472,0.04019 -0.207412,0.0938 c -0.410375,0.185583 -0.627323,0.443255 -0.782986,0.929965 l -0.0793,0.247939 -0.01825,2.596224 -0.01825,2.596224 -1.029305,0.0088 -1.029305,0.0088 z m -6.384718,-0.03952 c -0.286988,-0.0571 -0.636274,-0.21808 -0.833403,-0.384092 L 47.06676,42.791494 46.956082,42.592825 c -0.06087,-0.109267 -0.144827,-0.314962 -0.186564,-0.457098 l -0.07588,-0.25843 -0.01071,-2.563151 -0.01071,-2.563151 -0.05744,-0.04134 -0.05743,-0.04134 h -0.581071 -0.58106 v -0.710321 -0.710322 l 0.630878,-0.009 0.630878,-0.009 0.0093,-0.78617 0.0093,-0.786169 0.751241,-0.350579 c 0.797098,-0.371978 1.031553,-0.474868 1.082078,-0.474868 h 0.03127 l 0.0091,1.198893 0.0091,1.198893 0.708657,0.01654 0.708658,0.01654 v 0.694532 0.694531 l -0.708658,0.01827 c -0.389761,0.01005 -0.713054,0.02121 -0.718427,0.02481 -0.0054,0.0036 -0.0054,1.037169 0,2.296834 l 0.0098,2.290299 0.09389,0.152793 0.09388,0.152793 0.130812,0.06156 0.130811,0.06156 0.311119,-0.0038 c 0.171114,-0.0021 0.380697,-0.01958 0.465739,-0.03886 0.08504,-0.01928 0.16151,-0.02846 0.169929,-0.02041 0.02103,0.02012 0.08501,1.502515 0.06564,1.521042 -0.0085,0.0082 -0.138729,0.04636 -0.28929,0.08485 l -0.273749,0.06998 -0.587667,0.01168 -0.587668,0.01168 z m 3.204202,0.0059 c -0.0094,-0.02346 -0.01281,-1.842888 -0.0076,-4.043164 l 0.0096,-4.000503 1.062987,-0.0087 1.062987,-0.0087 v 4.05191 4.05191 h -1.05543 -1.055429 z m 0.757496,-9.051839 c -0.07881,-0.01594 -0.220483,-0.06642 -0.314837,-0.11216 l -0.171552,-0.08317 -0.157301,-0.167386 -0.1573,-0.167386 -0.05503,-0.154528 -0.05504,-0.154528 7.59e-4,-0.21735 7.6e-4,-0.217351 0.06967,-0.146928 c 0.03832,-0.08081 0.12394,-0.210294 0.190272,-0.287741 l 0.120605,-0.140814 0.230251,-0.108448 0.230252,-0.108447 0.296017,-6.86e-4 c 0.342791,-7.94e-4 0.514152,0.04154 0.735197,0.181616 l 0.15854,0.100469 0.122966,0.172807 c 0.06763,0.09504 0.141338,0.244377 0.163791,0.331852 l 0.04082,0.159044 -0.01803,0.190291 -0.01804,0.190291 -0.0873,0.163295 c -0.114236,0.213677 -0.307127,0.388102 -0.542667,0.490713 l -0.190127,0.08283 -0.224697,0.01635 c -0.123583,0.009 -0.289175,0.0033 -0.367982,-0.01264 z"
         id="path112" /></g></g></svg>
